<?xml version="1.0" standalone="no"?>
<!DOCTYPE svg PUBLIC "-//W3C//DTD SVG 20010904//EN"
 "http://www.w3.org/TR/2001/REC-SVG-20010904/DTD/svg10.dtd">
<svg version="1.0" xmlns="http://www.w3.org/2000/svg"
 width="1500.000000pt" height="1000.000000pt" viewBox="0 0 1500.000000 1000.000000"
 preserveAspectRatio="xMidYMid meet">

<g transform="translate(0.000000,1000.000000) scale(0.100000,-0.100000)"
fill="#000000" stroke="none">
<path d="M9460 8298 c-50 -70 -50 -82 7 -136 90 -86 188 -176 273 -252 46 -41
109 -97 139 -125 31 -27 76 -68 101 -91 25 -22 79 -72 120 -110 42 -38 100
-91 130 -118 30 -27 82 -74 115 -105 33 -31 80 -74 105 -95 25 -22 81 -72 125
-112 44 -40 92 -82 107 -93 l26 -21 4 36 c4 35 -1 41 -243 283 -135 135 -297
295 -358 355 -71 69 -110 114 -107 123 3 8 1 11 -4 8 -6 -3 -10 -2 -10 2 0 5
-23 27 -52 48 -73 55 -308 294 -308 312 0 10 -7 14 -20 10 -16 -4 -20 0 -20
19 0 13 -6 24 -13 24 -8 0 -27 13 -43 29 l-29 29 -12 -29 c-7 -16 -17 -29 -23
-29 -6 0 -1 18 10 40 26 52 20 51 -20 -2z m5 -58 c3 -5 1 -10 -4 -10 -6 0 -11
5 -11 10 0 6 2 10 4 10 3 0 8 -4 11 -10z"/>
<path d="M10900 8009 c-46 -14 -96 -53 -115 -90 -9 -17 -39 -42 -70 -60 -30
-17 -58 -35 -61 -41 -13 -20 4 -16 46 12 25 17 48 30 51 30 4 0 4 -14 0 -32
-5 -26 -14 -34 -49 -47 -23 -8 -42 -21 -42 -29 0 -8 35 -51 78 -95 42 -45 83
-87 90 -95 10 -11 17 -10 43 12 44 38 94 35 177 -10 99 -53 116 -75 26 -32
-58 27 -76 18 -87 -43 -14 -76 -27 -119 -37 -119 -6 0 -10 -9 -10 -20 0 -13
-13 -28 -35 -41 -27 -16 -35 -27 -35 -50 0 -18 6 -32 16 -36 9 -3 28 -17 42
-29 33 -31 83 -32 116 -1 13 12 49 59 80 104 50 74 54 85 46 115 -5 18 -13 87
-19 153 -11 123 -33 229 -57 277 -20 39 -18 41 30 35 138 -19 266 -134 446
-401 130 -193 172 -241 298 -347 118 -98 213 -158 453 -284 279 -147 345 -190
427 -273 40 -41 75 -72 78 -69 12 12 -78 191 -131 262 -93 123 -213 215 -485
370 -200 114 -500 315 -577 387 -37 34 -143 134 -236 222 -211 202 -296 258
-414 270 -26 3 -64 0 -83 -5z"/>
<path d="M11287 7424 c-4 -4 -7 -17 -7 -30 0 -18 4 -21 23 -17 16 3 18 2 8 -5
-10 -8 -11 -10 0 -14 8 -3 1 -17 -22 -44 -49 -56 -67 -93 -75 -152 -3 -29 -10
-52 -14 -52 -4 0 -10 -9 -13 -19 -3 -11 -17 -22 -35 -26 -21 -4 -34 -15 -42
-36 -13 -31 -37 -49 -65 -49 -16 0 -77 -39 -83 -53 -8 -17 -31 17 -43 64 -13
48 -14 49 -51 49 -21 0 -46 5 -56 11 -23 15 -72 -14 -72 -41 0 -10 -6 -20 -12
-23 -10 -3 -13 -69 -14 -283 -1 -153 -4 -299 -8 -324 -4 -25 -9 -117 -10 -205
-2 -88 -7 -168 -11 -177 -4 -11 -3 -18 4 -18 6 0 11 -4 11 -10 0 -5 -7 -10
-15 -10 -21 0 -19 -26 5 -50 11 -11 17 -26 14 -34 -4 -10 3 -17 20 -22 14 -3
23 -11 20 -16 -4 -7 5 -8 25 -3 24 5 31 3 31 -9 0 -9 7 -16 15 -16 17 0 20
-23 5 -50 -7 -13 -6 -19 5 -24 23 -9 43 3 54 32 8 23 10 24 11 7 1 -11 2 -23
1 -27 0 -5 4 -8 10 -8 5 0 7 -4 4 -10 -3 -5 -26 -10 -51 -10 -41 0 -65 -19
-26 -21 9 -1 4 -5 -13 -9 l-30 -8 36 -1 c42 -1 48 -6 42 -31 -3 -11 -16 -20
-32 -22 -17 -2 -25 -8 -23 -18 1 -10 -4 -7 -17 7 -19 23 -34 21 -25 -2 3 -7
-8 -18 -25 -26 -22 -10 -29 -19 -25 -31 3 -10 -2 -19 -15 -23 -12 -3 -23 -20
-28 -43 -6 -26 -15 -38 -33 -43 -14 -4 -19 -7 -12 -8 6 -1 12 -8 12 -16 0 -9
-6 -12 -16 -8 -13 5 -15 2 -9 -15 5 -18 1 -24 -20 -32 -15 -6 -33 -16 -40 -24
-12 -12 -12 -15 2 -20 9 -4 20 -1 24 5 4 7 12 8 20 4 16 -10 -26 -29 -57 -26
-12 1 -24 -5 -27 -13 -5 -12 0 -16 21 -16 l27 0 -29 -15 c-15 -8 -35 -15 -42
-15 -18 0 -18 -18 1 -37 10 -9 12 -19 7 -27 -10 -12 -25 -66 -19 -66 2 0 14
20 27 45 14 27 27 42 33 36 5 -5 3 -18 -5 -31 -10 -17 -10 -24 -1 -27 20 -7 2
-33 -23 -33 -13 0 -24 -4 -24 -10 0 -5 5 -10 11 -10 5 0 7 -5 3 -11 -3 -6 0
-15 7 -20 11 -8 10 -13 -8 -28 -24 -20 -30 -41 -13 -41 5 0 -6 -17 -25 -37
-19 -20 -35 -46 -36 -58 -1 -11 -2 -29 -3 -40 0 -11 -11 -21 -26 -25 -19 -5
-24 -12 -22 -28 2 -13 -3 -25 -12 -28 -9 -3 -16 -10 -16 -15 0 -5 -8 -17 -17
-27 -51 -52 -73 -84 -73 -102 0 -11 -7 -20 -16 -20 -11 0 -14 -6 -9 -21 4 -12
3 -24 -1 -28 -17 -12 -34 -51 -34 -76 0 -14 -4 -25 -10 -25 -5 0 -10 -11 -10
-25 0 -14 -7 -28 -16 -32 -11 -4 -12 -8 -4 -13 8 -5 9 -13 4 -21 -4 -8 -10
-34 -11 -59 -5 -82 -7 -89 -20 -79 -13 12 -28 -5 -18 -21 3 -5 3 -15 0 -21 -4
-6 -21 11 -40 39 -40 59 -145 156 -199 184 -47 24 -75 18 -101 -24 -26 -42
-169 -159 -314 -256 -63 -42 -135 -97 -160 -122 -26 -25 -76 -69 -113 -98 -38
-29 -98 -75 -135 -104 -38 -29 -126 -97 -198 -152 -173 -132 -249 -198 -380
-331 -60 -61 -129 -127 -152 -148 -23 -21 -47 -54 -54 -74 -14 -43 -7 -204 12
-275 l13 -46 -47 -52 c-26 -29 -55 -66 -64 -82 -10 -16 -23 -26 -31 -23 -8 3
-19 5 -27 5 -10 0 -13 54 -13 263 -1 222 -14 466 -28 488 -8 15 -34 227 -35
288 0 36 -3 83 -7 105 -4 21 -7 -161 -7 -405 0 -244 3 -426 6 -404 6 37 6 35
8 -18 0 -37 -3 -56 -9 -52 -6 4 -11 -13 -12 -42 l-1 -48 -8 60 c-6 56 -2 -195
6 -332 3 -57 2 -63 -16 -63 -10 0 -19 4 -19 9 0 4 -11 6 -25 3 -21 -4 -24 -1
-19 13 6 15 4 16 -14 6 -12 -6 -33 -9 -47 -5 -18 4 -25 2 -25 -9 0 -8 -7 -17
-14 -20 -11 -4 -13 -1 -9 11 5 14 3 15 -8 4 -18 -16 -29 -15 -29 3 0 8 -4 15
-10 15 -5 0 -10 -11 -10 -24 0 -14 5 -28 10 -31 6 -3 10 0 10 7 0 10 2 10 8 1
4 -7 13 -9 21 -4 18 11 51 2 51 -14 0 -7 5 -15 12 -17 16 -6 -34 -177 -64
-220 -13 -18 -42 -54 -66 -80 -23 -26 -45 -61 -49 -78 -3 -17 -14 -35 -24 -41
-11 -5 -19 -16 -19 -23 0 -23 -34 -44 -110 -66 -65 -19 -81 -21 -123 -11 -27
6 -68 11 -92 11 -50 0 -50 -2 -9 86 77 165 115 336 95 439 -6 34 -11 74 -11
89 0 14 -4 34 -10 44 -5 9 -19 57 -30 105 -19 83 -20 127 0 127 4 0 11 11 14
25 6 25 -5 46 -30 56 -7 3 -6 15 3 38 10 23 17 31 24 24 22 -22 48 -2 53 41
13 103 15 195 7 246 -6 36 -5 62 1 74 6 11 11 62 11 114 0 80 -3 98 -22 123
-17 22 -20 37 -16 63 4 20 1 47 -9 71 -9 20 -16 52 -16 69 0 17 -7 41 -15 53
-8 11 -44 160 -80 329 -36 170 -68 319 -70 331 -6 27 -10 25 165 52 205 32
511 62 537 54 9 -3 8 -302 -2 -379 -6 -50 -6 -52 20 -51 l25 0 -2 151 c-3 259
-1 283 22 289 13 3 20 14 20 31 0 20 -12 33 -57 62 -67 43 -51 42 -393 24
-118 -6 -240 -16 -270 -23 -30 -6 -108 -11 -174 -10 -65 0 -113 -3 -106 -7 18
-11 -9 -17 -110 -25 -47 -4 -139 -13 -205 -21 -66 -7 -196 -21 -290 -29 -93
-9 -197 -20 -230 -26 -119 -20 -135 -22 -135 -12 0 14 46 31 95 36 30 2 39 7
37 19 -1 9 5 19 15 22 28 8 168 24 268 31 50 4 155 13 235 21 80 7 303 21 495
29 355 16 585 31 593 40 3 2 -4 7 -14 11 -10 3 -36 12 -56 20 -20 7 -76 23
-125 34 -48 12 -105 28 -126 36 -44 16 -166 18 -282 4 -44 -5 -183 -16 -310
-25 -259 -17 -427 -34 -725 -71 -229 -28 -297 -38 -1030 -153 -107 -17 -323
-46 -480 -66 -368 -46 -388 -50 -396 -79 -4 -18 4 -34 35 -67 22 -24 113 -132
202 -239 89 -107 170 -203 182 -213 25 -22 63 -16 123 20 40 22 351 109 360
100 9 -8 24 -243 29 -427 6 -265 23 -498 40 -551 23 -72 19 -101 -25 -175 -26
-44 -39 -77 -35 -90 3 -14 -4 -29 -20 -44 -14 -13 -25 -28 -25 -33 0 -8 -12
-22 -92 -110 -33 -36 -34 -40 -8 -32 23 7 26 -4 8 -25 -7 -8 -1 -4 15 9 32 29
35 21 6 -19 -14 -19 -20 -36 -16 -51 3 -13 1 -29 -5 -36 -9 -11 -6 -12 13 -5
13 5 24 16 24 23 0 8 10 25 22 39 13 14 21 32 17 42 -6 20 12 58 28 58 6 0 4
-8 -5 -18 -23 -26 -22 -46 1 -33 16 8 18 6 16 -19 -1 -16 -5 -33 -8 -39 -5 -7
-1 -8 10 -4 12 4 15 2 12 -8 -3 -8 -12 -13 -21 -13 -9 1 -14 -2 -12 -7 3 -4 3
-20 -1 -34 -5 -20 -9 -23 -20 -14 -9 8 -14 8 -14 1 0 -6 5 -14 10 -17 7 -4 4
-18 -6 -38 -33 -64 -34 -67 -23 -67 7 0 5 -10 -5 -25 -9 -14 -14 -25 -12 -25
11 0 95 94 90 102 -3 4 0 8 5 8 6 0 10 3 9 8 -1 4 11 21 27 38 28 29 43 61 65
139 7 28 8 28 9 5 1 -22 4 -20 23 18 22 43 38 54 38 27 0 -8 4 -15 10 -15 12
0 8 -33 -6 -52 -14 -17 -27 -49 -29 -71 -1 -9 -10 -26 -19 -36 -21 -23 -20
-30 4 -24 11 3 20 12 20 19 0 8 5 14 11 14 5 0 7 -5 3 -12 -5 -8 -2 -9 9 -5
10 3 17 2 17 -3 0 -6 -7 -10 -15 -10 -8 0 -15 -5 -15 -11 0 -5 4 -8 9 -5 5 3
11 -7 13 -23 3 -18 0 -27 -7 -25 -6 3 -18 -9 -28 -26 -10 -16 -22 -30 -28 -30
-5 0 -9 -4 -9 -10 0 -17 -34 -50 -50 -49 -11 0 -9 5 8 16 31 22 28 37 -5 16
-19 -13 -28 -14 -31 -5 -2 6 -8 12 -14 12 -6 0 -7 -7 -4 -16 4 -9 -1 -28 -10
-42 -12 -18 -15 -42 -12 -92 2 -38 1 -67 -3 -64 -8 4 -19 -47 -19 -87 0 -16 5
-29 10 -29 6 0 10 7 10 16 0 8 4 12 10 9 6 -3 10 3 10 14 0 12 4 21 10 21 5 0
12 11 16 24 3 14 15 33 27 43 18 15 19 15 9 1 -8 -9 -12 -24 -10 -33 2 -10 18
11 40 52 36 66 88 131 72 90 -3 -9 -10 -17 -14 -17 -9 0 -60 -101 -60 -120 0
-10 3 -10 14 -1 12 10 13 8 9 -11 -3 -13 -10 -29 -16 -36 -5 -6 -11 -50 -12
-96 -2 -87 -9 -111 -28 -99 -7 3 -3 -4 7 -16 17 -18 17 -21 3 -15 -19 7 -19 6
-36 -84 -7 -35 -15 -71 -18 -80 -3 -9 6 -3 20 13 16 18 24 37 21 48 -3 10 0
24 6 32 27 32 50 92 50 127 0 26 4 38 14 38 17 0 59 96 53 121 -3 11 3 29 14
42 l18 22 1 -35 c1 -34 1 -34 16 -15 14 19 15 18 8 -19 -5 -28 -4 -37 5 -32 6
4 11 17 11 29 0 12 5 29 10 37 7 10 8 -4 5 -45 -5 -70 9 -107 19 -51 4 20 5
40 2 44 -2 4 5 8 16 8 17 0 19 -5 14 -36 -3 -19 -6 -48 -6 -64 0 -16 -3 -26
-7 -22 -13 12 -32 -147 -20 -162 7 -9 6 -11 -7 -6 -9 4 -16 3 -15 -2 4 -18
-13 -44 -25 -37 -6 3 -1 -5 11 -18 14 -15 19 -29 14 -37 -6 -10 -10 -7 -15 10
-13 47 -27 -3 -36 -137 l-1 -20 -9 20 c-5 12 -6 -14 -3 -63 4 -50 2 -91 -5
-105 -13 -27 -44 -198 -41 -224 1 -10 -1 -25 -5 -33 -3 -9 -8 -31 -10 -50 -5
-51 -17 -90 -27 -90 -5 0 -14 -10 -20 -22 -7 -17 -8 -8 -4 35 6 63 0 73 -17
26 -15 -44 -20 -30 -8 27 8 43 19 147 24 225 1 19 5 25 16 21 12 -5 13 -3 4 9
-7 8 -8 22 -3 34 14 35 11 55 -8 48 -13 -5 -15 -2 -9 18 3 13 9 36 12 52 4 15
11 27 16 27 5 0 7 4 4 9 -4 5 -2 20 2 33 5 12 12 43 15 68 7 43 6 44 -8 20 -8
-14 -14 -36 -15 -49 0 -29 -35 -87 -57 -95 -23 -9 -25 -3 -9 30 8 16 25 67 37
113 14 53 25 77 29 66 4 -13 9 -7 18 21 13 43 8 60 -7 23 -8 -20 -10 -21 -10
-5 -1 11 5 27 13 35 19 21 33 77 17 67 -6 -4 -11 -15 -11 -25 0 -10 -8 -25
-17 -32 -15 -12 -16 -12 -8 6 14 34 18 75 7 75 -5 0 -12 -12 -15 -27 -12 -58
-35 -137 -36 -121 -1 14 -6 13 -27 -9 -14 -14 -23 -31 -20 -38 2 -7 -2 -16
-10 -19 -8 -3 -14 -13 -14 -23 0 -15 2 -15 15 3 13 17 13 16 4 -16 -6 -19 -14
-49 -19 -66 -4 -18 -10 -36 -13 -41 -3 -5 -8 -27 -10 -48 -3 -22 -8 -47 -11
-55 -3 -8 -7 -28 -9 -45 -11 -72 -20 -111 -30 -123 -6 -7 -14 -32 -18 -55 -4
-23 -12 -60 -18 -82 -5 -22 -13 -56 -16 -76 -3 -20 -14 -47 -25 -59 -11 -13
-20 -32 -20 -42 0 -12 -4 -16 -12 -12 -7 4 -8 3 -4 -5 9 -14 -12 -43 -25 -35
-5 2 -11 -7 -15 -21 -3 -13 -10 -23 -14 -20 -5 3 -6 -4 -3 -14 3 -11 -5 -47
-16 -81 -16 -46 -19 -66 -11 -80 14 -27 30 -25 30 3 0 12 10 62 22 110 20 78
23 86 30 60 6 -20 2 -42 -12 -75 -11 -25 -22 -61 -25 -80 -4 -18 -12 -60 -19
-93 l-13 -60 -7 50 c-11 71 -14 76 -16 25 -2 -36 -3 -40 -9 -20 -5 18 -11 -1
-20 -70 -19 -146 -19 -150 -4 -150 7 0 13 -5 13 -11 0 -5 -4 -8 -9 -5 -9 6
-32 -144 -24 -158 4 -5 -1 -7 -10 -3 -13 5 -21 -2 -31 -26 l-14 -32 -1 30 c-1
32 11 57 25 56 5 -1 12 20 15 46 4 26 9 60 12 75 4 19 1 31 -11 37 -13 7 -14
12 -4 24 7 8 15 48 18 89 3 40 10 83 16 95 6 13 8 26 5 30 -4 3 -7 -1 -7 -10
0 -10 -6 -16 -13 -15 -6 2 -11 -5 -11 -15 1 -9 -2 -17 -8 -17 -15 0 -39 -68
-39 -113 0 -23 -1 -63 -3 -89 -1 -27 1 -45 7 -41 10 6 2 -24 -19 -72 -12 -29
-13 -29 -19 -8 -4 13 -12 23 -17 23 -6 0 -8 9 -5 20 3 11 1 23 -4 26 -5 3 -9
-4 -9 -15 0 -10 -3 -27 -7 -37 -4 -12 -3 -15 5 -10 16 10 15 -13 -3 -64 -16
-45 -12 -70 4 -29 10 24 10 24 10 2 1 -25 20 -30 39 -11 9 9 12 9 12 0 0 -9
30 -12 105 -12 89 0 104 2 99 15 -4 8 -1 15 5 15 6 0 11 -7 11 -15 0 -22 59
-20 76 3 13 16 13 16 14 0 0 -24 30 -23 30 0 0 10 4 22 9 28 14 14 25 94 13
94 -6 0 -2 26 8 61 20 66 17 70 -12 11 -11 -23 -16 -28 -12 -12 3 14 8 37 11
52 3 16 10 25 16 21 6 -4 8 3 3 20 -8 35 23 197 42 220 13 14 13 17 1 17 -9 0
-10 3 -3 8 6 4 16 25 22 47 10 35 10 30 5 -39 -4 -55 -2 -77 5 -72 6 4 9 13 6
20 -3 7 2 33 10 57 9 24 16 57 16 72 0 16 4 26 8 23 4 -3 7 14 6 37 -2 36 0
39 11 24 11 -15 13 -10 19 37 8 69 16 92 27 75 5 -8 10 2 14 27 25 148 43 178
26 42 -4 -32 -4 -58 1 -58 4 0 1 -18 -7 -40 -16 -45 -12 -50 15 -18 13 16 15
29 9 45 -5 13 -4 25 1 28 7 4 7 13 0 25 -7 13 -6 21 5 30 9 7 15 27 14 44 -1
51 13 136 22 130 9 -5 14 29 9 51 -6 22 8 87 19 95 10 6 31 46 31 57 0 4 -5 1
-10 -7 -8 -12 -10 -10 -10 8 0 13 4 21 9 18 5 -3 14 23 20 58 9 52 9 68 -4 92
-8 15 -11 31 -6 34 12 8 23 42 11 35 -15 -9 -12 29 5 61 8 16 15 36 14 44 0 8
-4 5 -9 -7 -17 -41 -21 -24 -15 64 7 106 15 120 16 27 l1 -69 13 55 c18 68 18
73 3 64 -8 -5 -9 0 -4 17 4 13 13 65 21 114 7 50 14 79 15 65 2 -19 4 -20 7
-7 3 10 10 16 16 14 18 -6 37 40 38 94 1 28 6 45 10 38 8 -14 22 9 33 54 4 16
11 25 17 21 8 -4 9 1 4 16 -5 15 -4 20 4 16 7 -5 11 4 11 23 0 24 3 29 17 24
12 -5 15 -2 11 9 -4 8 -2 21 3 29 6 10 9 5 9 -17 0 -21 -6 -34 -17 -38 -14 -6
-15 -9 -4 -15 11 -7 7 -19 -18 -55 -17 -26 -31 -49 -31 -52 0 -3 -9 -17 -20
-31 -11 -14 -20 -40 -21 -57 0 -17 -4 -40 -8 -51 -13 -33 0 -51 16 -24 11 19
13 20 9 4 -29 -116 -32 -329 -4 -362 8 -10 6 -31 -5 -81 -24 -102 -39 -184
-39 -209 0 -13 -4 -20 -9 -18 -4 3 -10 -3 -13 -12 -34 -115 -55 -196 -51 -203
5 -8 -10 -64 -26 -93 -6 -11 -17 -53 -25 -94 -16 -85 -32 -124 -35 -83 -1 23
-2 23 -9 -5 -4 -16 -5 -42 -2 -57 2 -14 -3 -40 -11 -57 -8 -17 -13 -40 -10
-52 4 -14 2 -20 -4 -16 -11 7 -29 -71 -25 -108 1 -14 0 -16 -6 -7 -6 9 -13 0
-22 -27 -7 -22 -16 -38 -20 -36 -4 3 -16 -24 -26 -60 -20 -70 -41 -90 -29 -28
4 21 9 51 11 67 2 16 9 35 16 43 15 19 59 154 53 164 -3 4 2 10 11 13 8 3 12
11 9 17 -4 6 -2 31 5 55 7 25 11 47 8 49 -5 6 -71 -191 -71 -211 0 -7 -6 -10
-13 -7 -13 5 -19 -16 -28 -107 -3 -25 -5 -46 -5 -47 -1 -2 -7 -3 -13 -3 -7 0
-14 -10 -15 -22 -1 -13 -3 -34 -5 -48 -2 -17 1 -24 10 -22 16 3 9 -28 -19 -76
-10 -18 -19 -42 -19 -52 0 -10 -6 -23 -14 -27 -13 -7 -20 -46 -17 -99 1 -21 6
-22 84 -20 81 1 82 1 80 26 -2 22 -1 23 8 7 5 -9 7 -22 4 -27 -4 -6 13 -10 44
-10 39 0 51 4 54 18 4 16 5 16 6 0 1 -21 51 -26 51 -5 0 9 2 9 9 -1 5 -9 31
-12 83 -11 l76 2 7 35 c7 38 32 82 46 82 12 0 12 -43 0 -56 -4 -5 -11 -21 -15
-36 l-6 -28 74 0 73 0 7 37 c8 53 8 135 -1 130 -5 -3 -7 37 -5 89 2 52 8 94
13 94 5 0 9 7 9 16 0 8 5 12 10 9 6 -3 10 1 10 9 0 9 -8 16 -17 16 -13 0 -14
3 -5 12 15 15 16 82 2 73 -7 -4 -9 2 -5 17 3 12 7 41 8 63 1 22 6 45 10 51 4
7 4 34 1 60 -3 27 -7 61 -8 77 -2 15 -6 30 -9 34 -4 3 -2 12 4 19 6 8 9 20 6
28 -3 8 1 20 9 26 16 14 20 45 4 35 -6 -3 -11 4 -11 17 -6 94 -6 154 -1 163 6
9 6 36 2 73 -1 9 -8 -5 -16 -33 l-14 -50 6 45 c3 25 6 54 7 65 1 11 10 29 19
39 15 17 17 42 14 225 -2 113 -6 271 -10 351 -5 124 -4 149 9 165 16 20 16 20
11 0 -16 -62 -17 -73 -8 -79 17 -11 27 101 11 121 -12 15 -12 16 4 10 11 -4
17 -2 16 6 -3 19 13 77 21 77 4 0 13 19 20 43 19 65 20 66 14 7 -3 -30 -6 -70
-6 -88 1 -18 -4 -30 -9 -27 -5 4 -9 16 -9 27 0 39 -12 10 -17 -39 -8 -88 -10
-99 -16 -110 -4 -6 -3 -21 1 -34 7 -19 10 -15 15 27 3 27 10 62 16 77 15 39
32 25 19 -16 -6 -17 -11 -48 -12 -67 -1 -19 -6 -46 -10 -60 -5 -18 -5 -21 3
-10 5 8 13 11 17 7 4 -4 2 -13 -4 -19 -7 -7 -12 -20 -12 -30 0 -10 -3 -18 -8
-18 -4 0 -6 -19 -5 -43 2 -34 1 -38 -7 -22 -9 17 -10 17 -4 -5 4 -14 7 -43 9
-65 1 -22 6 -58 12 -80 5 -22 9 -97 9 -167 -1 -70 2 -120 5 -111 5 15 6 15 12
-1 10 -25 9 -26 -9 -26 -14 0 -14 -3 -4 -15 8 -9 11 -30 7 -55 -3 -22 -1 -40
4 -40 5 0 9 -13 9 -30 0 -16 -4 -30 -9 -30 -5 0 -12 -12 -15 -27 -4 -16 -9
-37 -12 -48 -4 -17 -3 -18 6 -5 9 12 10 10 6 -12 -7 -30 8 -39 18 -12 11 29
29 423 27 609 0 84 2 113 9 98 10 -24 36 -33 27 -10 -3 8 -1 20 4 28 14 23 2
-406 -14 -496 -8 -44 -13 -85 -10 -91 2 -5 -3 -39 -11 -74 -10 -43 -12 -66 -5
-71 7 -4 6 -17 -3 -40 -15 -39 -13 -189 3 -189 6 0 7 18 3 45 -3 29 -2 45 5
45 6 0 8 -8 4 -17 -5 -15 -3 -14 10 2 16 20 16 19 17 -7 0 -14 -4 -28 -10 -30
-5 -2 -11 -46 -12 -99 -2 -54 -6 -95 -10 -92 -5 2 -8 -8 -8 -24 0 -15 -3 -53
-6 -83 -7 -57 1 -67 10 -15 3 17 12 54 19 83 8 28 10 52 6 52 -5 0 -9 5 -9 10
0 6 7 10 16 10 13 0 14 -8 8 -48 -3 -26 -10 -54 -15 -63 -5 -9 -8 -29 -7 -45
1 -16 -2 -41 -6 -57 -7 -22 -5 -26 7 -22 16 7 32 -31 17 -40 -5 -3 -10 3 -12
12 -3 15 -6 15 -17 -6 -7 -13 -9 -21 -3 -17 5 3 13 -1 16 -10 11 -27 7 -37 -9
-24 -21 17 -29 7 -16 -18 16 -29 14 -43 -6 -40 -14 3 -16 -6 -14 -59 3 -68
-14 -87 -22 -25 -2 20 -3 125 -1 232 2 130 0 185 -7 165 -5 -16 -6 -43 -3 -60
3 -16 0 -41 -5 -55 -10 -23 -11 -22 -10 15 3 83 -5 97 -11 20 -6 -84 -4 -98 9
-76 12 18 24 -19 15 -43 -6 -15 -7 -15 -20 1 -13 16 -14 12 -14 -37 1 -89 -8
-251 -14 -258 -3 -3 -6 2 -6 11 0 17 -15 23 -23 10 -3 -5 -8 -23 -12 -40 -6
-30 -5 -33 19 -33 18 0 26 6 29 23 l4 22 2 -23 1 -23 206 1 c198 1 206 2 201
21 -3 10 -1 17 4 13 5 -3 9 -1 9 5 0 5 -4 12 -9 15 -16 10 -19 59 -5 92 9 21
13 58 10 104 -2 39 0 88 5 108 5 22 4 41 -1 46 -12 12 -13 56 -2 56 5 0 7 66
5 146 -5 145 -4 147 16 141 26 -6 27 1 3 22 -11 9 -19 29 -19 49 0 21 3 28 8
20 5 -7 7 7 5 32 -3 25 -2 77 1 117 5 59 9 72 25 76 17 5 19 13 15 68 -3 41 1
71 9 88 15 29 19 65 5 57 -4 -3 -6 7 -3 22 5 24 6 24 13 7 7 -20 7 -20 15 0 4
11 8 34 8 52 0 18 3 28 7 22 3 -6 9 4 13 21 9 49 7 56 -9 34 -14 -18 -15 -16
-8 21 4 22 7 58 6 79 -1 27 2 35 8 25 5 -8 9 -9 10 -4 3 17 10 79 12 98 1 9 4
17 7 17 3 0 5 12 6 28 1 15 7 54 13 86 7 33 11 75 9 93 -2 18 -1 33 2 33 4 0
5 13 2 30 -2 17 -9 27 -15 23 -7 -4 -8 9 -4 39 4 30 1 65 -9 100 -9 29 -18 71
-20 93 -1 22 -3 47 -4 55 -1 8 -6 4 -11 -10 -6 -13 -7 -36 -4 -49 5 -21 4 -23
-9 -12 -12 10 -14 31 -10 114 3 56 7 104 10 106 4 5 8 -62 4 -93 -1 -14 30
-56 42 -56 2 0 4 24 4 53 1 28 7 76 14 105 l13 54 13 -37 c7 -21 10 -43 8 -50
-3 -7 2 -19 10 -28 9 -9 16 -31 15 -49 0 -27 -2 -30 -9 -13 -8 18 -9 18 -9 -5
0 -14 2 -36 6 -50 l7 -25 7 25 c7 25 4 -96 -7 -240 -3 -41 -5 -87 -5 -102 0
-16 -5 -28 -11 -28 -6 0 -8 -9 -5 -21 3 -11 -1 -36 -9 -56 -16 -37 -20 -193
-8 -261 6 -30 4 -34 -10 -29 -17 7 -19 -1 -19 -80 1 -24 -2 -43 -6 -43 -15 0
-16 -262 -1 -291 9 -16 9 -23 1 -29 -7 -3 -9 -14 -5 -23 4 -10 1 -17 -6 -17
-14 0 -11 -33 15 -170 l14 -75 -1 90 c-1 50 -1 115 1 145 3 48 4 51 11 25 l8
-30 1 34 c2 52 11 32 23 -50 11 -79 13 -188 3 -227 -4 -17 -2 -22 6 -16 9 5
10 -6 5 -47 -4 -30 -11 -132 -16 -228 -6 -115 -13 -177 -21 -181 -6 -4 -9 -12
-5 -18 3 -6 2 -21 -3 -34 -4 -12 -11 -55 -14 -94 -6 -68 -20 -124 -32 -124 -4
0 -4 4 0 9 3 6 7 40 10 77 4 64 3 66 -11 45 -9 -12 -18 -39 -21 -60 -4 -27
-10 -37 -24 -38 -10 -1 -19 3 -19 8 0 6 4 7 10 4 12 -8 5 79 -10 116 -6 14
-15 54 -19 90 -8 52 -9 34 -8 -93 2 -150 8 -188 26 -159 6 9 10 10 12 2 3 -8
720 -10 2684 -9 l2679 3 -130 131 c-72 73 -141 135 -152 138 -12 4 -24 17 -28
29 -8 26 -105 234 -137 292 -11 22 -38 66 -59 99 -21 32 -41 75 -44 95 -4 20
-32 101 -61 181 -30 80 -75 213 -100 295 -42 142 -45 162 -63 385 -16 207 -22
247 -50 330 -54 164 -58 182 -94 335 -19 84 -63 227 -99 325 -36 96 -100 283
-143 415 -42 132 -99 300 -125 374 l-48 134 58 131 c160 359 285 674 354 891
14 44 62 186 107 315 45 129 104 300 130 380 102 308 209 559 274 645 47 62
95 133 115 171 41 77 42 78 104 60 30 -9 66 -16 79 -16 17 0 44 -22 93 -77 61
-68 142 -153 392 -412 57 -59 64 -64 87 -53 13 6 33 8 44 5 25 -6 147 107 224
208 29 38 56 69 61 69 14 0 270 -173 347 -235 41 -33 91 -71 110 -84 19 -13
51 -39 71 -58 l35 -34 40 17 c43 18 154 60 278 104 l79 29 -94 94 c-148 149
-385 319 -619 445 -36 19 -72 40 -80 47 -35 28 -115 65 -118 56 -2 -6 -10 -11
-17 -11 -14 0 -15 -17 -2 -37 4 -6 3 -14 -3 -18 -5 -3 -10 1 -10 9 0 9 -7 16
-15 16 -8 0 -18 0 -22 0 -5 0 -8 -4 -8 -9 0 -5 -3 -13 -7 -17 -13 -13 -9 -21
13 -27 12 -3 18 -10 14 -16 -3 -6 -11 -9 -16 -6 -5 4 -9 1 -9 -4 0 -18 5 -26
13 -23 4 1 7 -5 7 -14 0 -8 -4 -12 -10 -9 -5 3 -10 2 -10 -4 0 -6 9 -15 21
-21 13 -7 18 -17 15 -27 -4 -9 -1 -22 5 -30 19 -22 -3 -38 -32 -23 -21 10 -22
10 -7 -3 10 -8 15 -17 12 -20 -4 -3 1 -13 10 -22 18 -19 13 -35 -11 -35 -9 0
-63 -47 -121 -105 -57 -58 -109 -105 -115 -105 -7 0 -6 4 3 10 13 9 13 11 0
20 -13 9 -13 11 0 20 13 8 13 10 -1 10 -9 0 -27 15 -40 32 -34 46 -112 132
-124 137 -5 2 -39 33 -75 67 -72 69 -107 98 -131 107 -21 7 -52 100 -75 222
-10 50 -23 94 -31 98 -7 4 -13 17 -13 27 0 11 -4 20 -10 20 -5 0 -10 7 -10 16
0 9 -9 31 -19 48 -11 17 -21 52 -22 76 -1 25 -7 57 -11 72 -7 20 -4 36 12 68
12 24 24 66 26 94 4 43 1 55 -20 80 -16 19 -30 27 -41 23 -9 -4 -13 -12 -10
-17 4 -6 -37 -54 -90 -106 -83 -82 -101 -95 -122 -89 -15 3 -30 18 -39 41 -21
49 -11 72 34 79 63 11 67 14 46 29 -19 14 -19 15 2 43 19 26 73 134 88 177 10
30 -14 93 -41 105 -28 13 -64 -4 -56 -26 3 -7 -13 -32 -36 -54 -32 -32 -41
-49 -41 -75 0 -18 -4 -36 -10 -39 -5 -3 -10 -15 -10 -25 0 -10 -28 -48 -62
-83 -58 -60 -67 -66 -110 -68 -64 -4 -74 7 -59 65 6 25 11 68 11 96 0 32 4 49
10 45 6 -3 16 -3 22 2 7 4 25 6 39 5 79 -9 163 233 114 327 -8 16 -25 31 -39
35 -13 3 -30 8 -38 11 -8 3 -17 2 -21 -1z m50 -20 c-3 -3 -12 -4 -19 -1 -8 3
-5 6 6 6 11 1 17 -2 13 -5z m259 -1189 c52 -50 48 -61 -5 -15 -19 16 -38 27
-43 24 -4 -3 -8 4 -8 15 0 12 2 21 4 21 3 0 26 -20 52 -45z m1149 -53 c-3 -3
-11 0 -18 7 -9 10 -8 11 6 5 10 -3 15 -9 12 -12z m-2038 -69 c-3 -10 -5 -4 -5
12 0 17 2 24 5 18 2 -7 2 -21 0 -30z m301 -109 c14 -4 22 -14 22 -28 0 -32
-15 -43 -55 -38 -39 5 -45 21 -18 52 19 22 19 22 51 14z m-25 -92 c-13 -2 -23
-8 -23 -14 0 -6 -3 -8 -6 -5 -12 12 17 36 34 29 14 -6 13 -7 -5 -10z m-38 -52
c11 -5 14 -9 7 -9 -7 -1 -20 -8 -28 -16 -9 -8 -22 -15 -30 -15 -8 0 -14 7 -14
15 0 8 7 15 15 15 8 0 15 5 15 10 0 12 8 12 35 0z m-50 -140 c4 -6 -6 -10 -22
-9 -25 0 -26 1 -8 9 11 5 21 9 22 9 1 1 5 -3 8 -9z m-4995 -1182 c0 -13 -43
-6 -47 8 -2 7 6 10 22 7 14 -3 25 -10 25 -15z m-68 -26 c9 -9 9 -15 0 -24 -7
-7 -12 -22 -12 -35 0 -14 -6 -23 -16 -23 -11 0 -14 6 -9 23 7 21 7 22 -11 3
-14 -13 -16 -20 -6 -23 6 -3 10 -9 6 -14 -7 -12 3 -11 27 1 15 9 19 7 19 -7 0
-15 2 -15 9 -3 6 8 8 17 5 21 -2 4 0 10 6 14 5 3 10 1 10 -5 0 -7 8 -9 20 -5
12 4 20 2 20 -5 0 -6 4 -9 9 -6 5 4 7 -3 4 -14 -6 -23 -23 -27 -23 -5 0 24
-17 17 -24 -10 -5 -20 -13 -25 -39 -25 -21 0 -27 -3 -19 -9 7 -4 12 -14 10
-21 -3 -16 33 -20 44 -5 4 6 8 -3 8 -20 0 -23 -3 -27 -10 -15 -5 8 -10 10 -10
4 0 -6 -6 -11 -12 -11 -7 0 -23 -3 -35 -7 -18 -6 -23 -3 -23 9 0 11 5 15 15
11 11 -4 14 1 13 19 -3 30 -6 31 -25 8 -12 -16 -13 -15 -7 11 6 27 5 29 -17
23 -13 -4 -31 -7 -39 -8 -8 0 -5 -4 8 -7 13 -4 22 -11 22 -17 -1 -5 -6 -9 -11
-7 -5 1 -9 -9 -9 -23 0 -14 -4 -25 -10 -25 -5 0 -10 12 -10 28 0 22 -2 24 -11
12 -8 -12 -9 -7 -6 18 4 33 -6 40 -33 22 -13 -8 -12 -10 3 -10 12 0 17 -6 15
-17 -2 -13 -13 -18 -38 -18 -38 0 -38 1 -27 67 4 29 3 36 -9 31 -8 -3 -14 -18
-14 -34 0 -29 -9 -34 -53 -31 -14 2 -12 -3 10 -24 l28 -25 -27 5 c-14 3 -28 3
-31 -2 -2 -4 -2 -1 0 7 2 9 -2 11 -14 7 -11 -5 -28 6 -55 33 -41 43 -46 54
-23 45 8 -4 15 -2 15 4 0 6 -6 13 -12 15 -8 4 -9 6 -2 6 6 1 17 -6 24 -14 9
-10 9 -15 1 -15 -6 0 -11 -5 -11 -11 0 -6 5 -7 13 -2 6 4 28 13 47 19 19 7 28
12 19 13 -15 1 -35 41 -21 41 12 0 38 -20 27 -20 -15 0 18 -20 33 -20 10 0 9
4 -2 16 -17 17 -19 37 -7 68 7 18 8 18 14 2 5 -12 14 -17 27 -13 13 3 20 0 20
-9 0 -8 -5 -14 -11 -14 -5 0 -7 -5 -3 -12 5 -8 11 -6 19 5 7 10 17 17 23 17 6
0 12 5 14 11 2 5 34 11 71 12 52 2 64 5 52 13 -8 6 -15 14 -15 16 0 11 60 2
72 -10z m131 -1 c-3 -11 -13 -21 -24 -24 -10 -3 -19 -12 -19 -21 0 -17 -25
-12 -48 10 -10 11 -9 15 8 24 16 8 18 8 14 -4 -3 -8 -1 -17 5 -20 5 -4 12 3
16 14 3 11 13 20 21 20 8 0 14 5 14 10 0 6 4 10 9 10 5 0 7 -9 4 -19z m211 -6
c-7 -17 -20 -20 -28 -6 -4 5 0 12 6 14 23 9 28 7 22 -8z m-174 -20 c0 -8 -4
-15 -9 -15 -5 0 -11 -10 -14 -22 -9 -33 -20 -14 -12 21 7 31 35 44 35 16z m60
0 c0 -8 -4 -15 -10 -15 -5 0 -10 7 -10 15 0 8 5 15 10 15 6 0 10 -7 10 -15z
m-588 -17 c-7 -7 -12 -8 -12 -2 0 14 12 26 19 19 2 -3 -1 -11 -7 -17z m377 -9
c-16 -10 -23 -4 -14 10 3 6 11 8 17 5 6 -4 5 -9 -3 -15z m137 -32 l29 2 -28
-15 c-39 -21 -57 -12 -57 28 l0 33 13 -25 c10 -19 20 -25 43 -23z m69 13 c3
-5 -1 -10 -9 -10 -9 0 -16 5 -16 10 0 6 4 10 9 10 6 0 13 -4 16 -10z m-793
-21 c2 -7 12 -7 30 0 32 12 48 -3 20 -18 -23 -12 -59 -4 -66 15 -3 8 -1 14 3
14 5 0 11 -5 13 -11z m216 -14 c-3 -3 -9 2 -12 12 -6 14 -5 15 5 6 7 -7 10
-15 7 -18z m752 15 c0 -5 -5 -10 -11 -10 -5 0 -7 5 -4 10 3 6 8 10 11 10 2 0
4 -4 4 -10z m-860 -25 c0 -8 9 -19 20 -25 31 -17 13 -33 -31 -27 -22 3 -39 1
-39 -4 0 -5 7 -9 16 -9 8 0 13 -4 10 -9 -3 -5 -15 -7 -26 -4 -11 3 -27 0 -35
-7 -18 -15 -20 1 -3 18 9 9 8 12 -7 12 -32 0 -9 11 30 15 39 3 58 20 50 43 -2
6 0 12 5 12 6 0 10 -7 10 -15z m-194 -10 c17 -16 14 -18 -10 -9 -9 3 -16 10
-16 15 0 13 9 11 26 -6z m869 -18 c16 -4 15 -5 -5 -6 -27 0 -64 22 -53 33 3 3
13 0 22 -8 9 -8 25 -16 36 -19z m-995 13 c0 -5 -2 -10 -4 -10 -3 0 -8 5 -11
10 -3 6 -1 10 4 10 6 0 11 -4 11 -10z m170 -15 c0 -8 -2 -15 -4 -15 -2 0 -6 7
-10 15 -3 8 -1 15 4 15 6 0 10 -7 10 -15z m770 1 c0 -3 -4 -8 -10 -11 -5 -3
-10 -1 -10 4 0 6 5 11 10 11 6 0 10 -2 10 -4z m-40 -36 c0 -5 -10 -10 -22 -10
-19 0 -20 2 -8 10 19 13 30 13 30 0z m-537 -7 c-7 -2 -21 -2 -30 0 -10 3 -4 5
12 5 17 0 24 -2 18 -5z m-459 -28 c3 -9 0 -15 -9 -15 -9 0 -12 6 -9 15 4 8 7
15 9 15 2 0 5 -7 9 -15z m366 5 c0 -5 -5 -10 -11 -10 -5 0 -7 5 -4 10 3 6 8
10 11 10 2 0 4 -4 4 -10z m356 -27 c-10 -10 -19 5 -10 18 6 11 8 11 12 0 2 -7
1 -15 -2 -18z m84 7 c-8 -5 -17 -7 -19 -4 -3 3 1 9 9 14 8 5 17 7 19 4 3 -3
-1 -9 -9 -14z m-610 1 c0 -5 -7 -12 -16 -15 -14 -5 -15 -4 -4 9 14 17 20 19
20 6z m547 -13 c-3 -8 -6 -5 -6 6 -1 11 2 17 5 13 3 -3 4 -12 1 -19z m-267 8
c0 -3 -4 -8 -10 -11 -5 -3 -10 -1 -10 4 0 6 5 11 10 11 6 0 10 -2 10 -4z m46
-11 c9 -8 11 -15 6 -15 -5 0 -15 7 -22 15 -7 8 -9 15 -6 15 4 0 14 -7 22 -15z
m-583 -35 c-3 -11 -7 -20 -9 -20 -2 0 -4 9 -4 20 0 11 4 20 9 20 5 0 7 -9 4
-20z m5239 -26 c-6 -12 -9 -7 -9 16 0 23 3 28 9 16 5 -9 5 -23 0 -32z m-4555
30 c-3 -3 -12 -4 -19 -1 -8 3 -5 6 6 6 11 1 17 -2 13 -5z m-87 -14 c12 -8 11
-10 -7 -10 -13 0 -23 5 -23 10 0 13 11 13 30 0z m0 -840 c0 -5 -4 -10 -10 -10
-5 0 -10 5 -10 10 0 6 5 10 10 10 6 0 10 -4 10 -10z m1696 -305 c18 -27 12
-45 -16 -45 -20 0 -35 26 -20 35 6 4 10 11 10 16 0 6 -5 7 -12 3 -7 -4 -8 -3
-4 4 11 18 24 14 42 -13z m861 -12 c-3 -10 -5 -4 -5 12 0 17 2 24 5 18 2 -7 2
-21 0 -30z m-982 -143 c-4 -12 -9 -19 -12 -17 -3 3 -2 15 2 27 4 12 9 19 12
17 3 -3 2 -15 -2 -27z m995 -220 c1 -80 5 -154 10 -165 5 -12 6 17 3 70 -3 65
-2 86 6 75 6 -8 11 -39 11 -68 0 -29 7 -68 15 -88 8 -20 10 -32 3 -28 -6 4
-19 -4 -29 -17 -12 -16 -21 -21 -27 -14 -12 12 -17 137 -13 310 4 170 18 120
21 -75z m-1081 84 c-6 -32 -14 -78 -20 -102 -5 -23 -8 -61 -8 -85 1 -23 3 -33
6 -22 14 69 14 69 24 54 12 -19 11 -42 -1 -34 -11 7 -10 -1 6 -72 3 -16 8 -50
9 -78 3 -49 3 -50 -9 -17 -6 18 -14 31 -16 28 -3 -3 -4 14 -3 37 l2 42 -9 -35
c-6 -19 -8 -57 -5 -85 3 -33 2 -43 -4 -30 -5 13 -7 -13 -5 -70 2 -59 0 -83 -6
-70 l-9 20 -2 -20 c-3 -27 -5 -55 -7 -81 -1 -12 -9 -24 -17 -28 -11 -4 -15 2
-15 22 0 18 3 23 9 14 5 -9 10 6 14 40 8 62 8 119 0 99 -4 -10 -7 -11 -13 -1
-4 7 -6 -7 -3 -32 4 -31 0 -55 -12 -78 -13 -25 -16 -48 -12 -89 3 -34 2 -46
-2 -31 -6 19 -10 21 -15 10 -3 -9 2 -41 13 -73 22 -63 20 -77 -3 -22 -8 19
-19 35 -24 35 -4 0 -9 30 -9 68 -1 43 2 58 6 42 7 -24 8 -24 12 8 4 22 2 32
-7 32 -10 0 -10 10 1 48 18 57 20 85 5 62 -5 -8 -10 -25 -10 -37 0 -13 -4 -23
-10 -23 -5 0 -10 8 -10 17 0 15 -2 14 -15 -3 -13 -18 -14 -120 -1 -214 2 -14
1 -49 -3 -77 -4 -29 -4 -53 0 -53 4 0 3 -17 -2 -37 -5 -21 -9 -59 -9 -84 0
-26 -7 -60 -15 -75 -14 -28 -15 -25 -12 54 2 45 0 82 -4 82 -5 0 -9 15 -9 33
0 24 -3 28 -10 17 -8 -13 -10 -12 -10 3 0 10 -4 15 -10 12 -13 -8 -13 -112 1
-120 5 -4 8 -19 5 -33 -3 -15 -8 -47 -11 -72 -3 -25 -10 -61 -15 -80 -4 -19
-13 -60 -20 -90 -6 -30 -15 -66 -20 -80 -5 -14 -11 -38 -15 -54 -3 -15 -8 -26
-11 -24 -2 3 0 25 5 49 5 24 12 67 16 94 28 247 29 257 16 277 -8 13 -10 31
-5 51 4 18 7 34 7 37 -8 37 -17 151 -17 207 0 45 -3 70 -9 66 -6 -4 -8 3 -3
18 9 32 16 149 7 127 -3 -10 -6 31 -7 90 0 59 -3 119 -7 134 -6 23 -5 26 9 21
15 -5 16 -1 11 35 -3 23 -1 45 4 48 9 5 13 -19 11 -71 -1 -26 0 -27 7 -10 5
11 10 30 10 42 1 12 6 25 12 29 9 5 10 -1 5 -20 -8 -31 0 -66 15 -66 5 0 9 10
9 23 0 18 2 19 10 7 5 -8 10 -10 10 -4 0 5 -5 15 -11 21 -9 9 -9 23 -2 51 6
22 8 59 6 82 -3 28 -1 40 6 35 6 -3 11 -21 11 -38 0 -24 3 -28 10 -17 8 13 10
13 10 -2 0 -9 -6 -19 -12 -22 -10 -5 -10 -7 -1 -12 7 -3 9 -12 6 -20 -3 -8 1
-14 10 -14 8 0 17 9 20 21 4 14 10 18 18 13 10 -6 10 -9 1 -12 -7 -2 -9 -15
-5 -33 3 -18 1 -29 -6 -29 -6 0 -11 -18 -11 -45 0 -25 5 -45 10 -45 6 0 10 12
10 27 0 14 2 24 6 21 3 -3 5 -33 5 -67 0 -33 5 -63 10 -66 5 -4 9 17 9 47 0
29 9 91 20 138 11 47 20 101 20 120 0 26 3 31 10 20 7 -12 11 -8 16 18 4 17
10 32 15 32 4 0 9 10 11 23 2 12 9 21 15 20 6 -1 14 9 17 24 12 47 16 17 5
-43z m-849 -49 c0 -2 -18 -14 -40 -25 -22 -11 -40 -18 -40 -15 0 2 17 13 38
24 42 23 42 23 42 16z m-1010 -26 c-7 -11 -14 -18 -17 -15 -3 3 0 12 7 21 18
21 23 19 10 -6z m1881 -26 c-12 -20 -14 -14 -5 12 4 9 9 14 11 11 3 -2 0 -13
-6 -23z m-204 -25 c-3 -8 -6 -5 -6 6 -1 11 2 17 5 13 3 -3 4 -12 1 -19z
m-1747 -33 c-7 -9 -15 -13 -17 -11 -6 6 20 36 26 30 2 -2 -2 -10 -9 -19z
m1107 -115 c1 -54 18 -87 37 -71 8 7 11 -4 9 -41 -2 -49 -1 -49 18 -32 15 13
19 14 19 3 0 -8 -9 -20 -20 -26 -10 -7 -24 -22 -31 -34 -8 -16 -8 -20 0 -14 9
5 11 -25 9 -109 -1 -63 -6 -110 -10 -103 -5 7 -8 1 -8 -16 0 -17 -4 -26 -11
-22 -6 4 -7 14 -3 24 3 9 8 37 9 63 2 25 6 56 10 68 5 15 3 20 -3 16 -10 -6
-30 95 -23 118 1 5 -3 12 -9 16 -7 5 -6 11 5 20 10 8 15 9 15 1 0 -6 5 -11 11
-11 20 0 4 53 -21 69 -13 9 -21 11 -18 6 4 -6 3 -17 -1 -23 -4 -8 -8 5 -9 28
-1 23 -4 45 -6 49 -4 6 22 71 28 71 1 0 3 -23 3 -50z m209 -82 c-1 -90 3 -147
13 -175 16 -48 8 -110 -14 -110 -9 0 -13 7 -10 16 2 9 0 23 -5 31 -7 11 -10
-4 -11 -50 l-2 -65 -11 66 c-6 36 -18 74 -25 84 -14 16 -16 16 -28 -2 -12 -16
-13 -12 -9 32 3 28 5 71 5 96 1 53 23 73 42 37 9 -16 8 -19 -2 -13 -12 8 -12
5 11 -120 4 -22 8 -32 9 -22 0 10 6 15 11 12 15 -10 11 38 -5 59 -8 11 -15 29
-15 40 0 17 2 18 10 6 11 -18 11 -20 16 50 6 85 15 160 19 160 1 0 2 -60 1
-132z m481 110 c-3 -8 -6 -5 -6 6 -1 11 2 17 5 13 3 -3 4 -12 1 -19z m-887 -8
c0 -5 -4 -10 -10 -10 -5 0 -10 5 -10 10 0 6 5 10 10 10 6 0 10 -4 10 -10z m89
-32 c0 -18 -3 -26 -6 -18 -3 8 -10 18 -16 21 -5 4 -6 12 -3 18 14 21 26 11 25
-21z m58 10 c-3 -8 -6 -5 -6 6 -1 11 2 17 5 13 3 -3 4 -12 1 -19z m-787 -8 c0
-5 -4 -10 -10 -10 -5 0 -10 5 -10 10 0 6 5 10 10 10 6 0 10 -4 10 -10z m465
-18 c-8 -8 -25 10 -19 20 4 6 9 5 15 -3 4 -7 6 -15 4 -17z m126 11 c13 -16 12
-17 -3 -4 -10 7 -18 15 -18 17 0 8 8 3 21 -13z m688 -75 c-1 -93 -6 -87 -11
15 -2 37 0 67 4 67 4 0 7 -37 7 -82z m-485 56 c3 -8 2 -12 -4 -9 -6 3 -10 1
-10 -6 0 -7 -2 -10 -5 -7 -5 5 4 38 10 38 2 0 6 -7 9 -16z m1836 -15 c0 -11
-4 -18 -10 -14 -5 3 -7 12 -3 20 7 21 13 19 13 -6z m-2519 -56 c-11 -21 -20
-30 -21 -21 0 9 4 19 9 23 5 3 13 20 17 38 5 19 9 25 11 15 3 -9 -5 -34 -16
-55z m649 15 c0 -16 -3 -19 -11 -11 -6 6 -8 16 -5 22 11 17 16 13 16 -11z
m-357 -13 c-3 -9 -8 -14 -10 -11 -3 3 -2 9 2 15 9 16 15 13 8 -4z m397 -77
l-9 -23 0 25 c0 14 -2 39 -5 55 l-6 30 15 -32 c10 -22 12 -39 5 -55z m-422 51
c3 -11 2 -11 -6 -1 -7 10 -14 6 -30 -20 -26 -39 -29 -29 -5 13 18 30 34 33 41
8z m-252 -30 c-9 -19 -15 -26 -16 -16 0 17 21 59 27 53 2 -2 -3 -18 -11 -37z
m948 8 c2 -14 -1 -31 -5 -39 -6 -8 -9 3 -9 31 0 46 10 51 14 8z m-873 -40
c-13 -13 -15 11 -4 40 7 16 8 15 11 -6 2 -13 -1 -28 -7 -34z m-124 18 c-7 -13
-14 -20 -15 -14 -2 5 2 16 8 24 18 21 20 18 7 -10z m323 -10 c0 -5 -5 -3 -10
5 -5 8 -10 20 -10 25 0 6 5 3 10 -5 5 -8 10 -19 10 -25z m243 -12 c-3 -7 -9
-13 -14 -13 -6 0 -5 -8 1 -19 13 -25 13 -51 -1 -51 -5 0 -9 8 -7 18 1 9 -1 23
-5 30 -5 6 -2 28 5 48 10 28 14 31 19 17 3 -10 4 -24 2 -30z m174 -15 c-3 -7
-5 -2 -5 12 0 14 2 19 5 13 2 -7 2 -19 0 -25z m-627 -23 c0 -15 -6 -25 -14
-25 -11 0 -12 5 -3 25 15 31 17 31 17 0z m-169 -8 c-10 -9 -11 -8 -5 6 3 10 9
15 12 12 3 -3 0 -11 -7 -18z m432 -20 c-2 -4 -8 -28 -13 -55 -5 -26 -16 -81
-24 -122 -24 -115 -16 -317 14 -355 4 -5 10 -35 13 -65 4 -30 9 -79 13 -109 6
-45 4 -56 -11 -67 -14 -11 -16 -16 -6 -28 9 -10 9 -16 1 -21 -6 -4 -10 -14 -9
-23 1 -10 -3 -30 -9 -45 -7 -16 -12 -35 -12 -43 0 -8 -4 -14 -9 -14 -4 0 -6
12 -4 28 4 25 3 26 -8 7 -7 -11 -19 -26 -26 -33 -11 -11 -13 -11 -13 1 0 27
21 75 36 81 8 3 14 11 14 18 0 9 -3 8 -10 -2 -5 -8 -10 -10 -10 -5 0 6 5 17
10 25 7 12 11 10 18 -10 9 -23 9 -23 14 -2 4 16 0 25 -13 33 -15 7 -18 16 -13
37 6 26 6 26 -9 7 -16 -19 -16 -18 -7 13 5 19 6 70 1 120 -5 48 -8 157 -9 242
0 124 4 171 20 230 11 41 22 89 25 105 2 17 7 37 10 45 8 19 10 27 12 43 2 6
6 3 10 -8 5 -11 7 -23 4 -28z m-312 10 c-10 -9 -11 -8 -5 6 3 10 9 15 12 12 3
-3 0 -11 -7 -18z m76 -29 c-3 -7 -5 -2 -5 12 0 14 2 19 5 13 2 -7 2 -19 0 -25z
m607 -12 c1 -23 -2 -35 -8 -33 -6 2 -11 9 -10 15 1 7 2 24 3 39 2 36 11 24 15
-21z m493 12 c-3 -8 -6 -5 -6 6 -1 11 2 17 5 13 3 -3 4 -12 1 -19z m-1475 -10
c-7 -7 -12 -8 -12 -2 0 14 12 26 19 19 2 -3 -1 -11 -7 -17z m258 -1 c0 -8 -3
-7 -9 2 -7 11 -10 9 -16 -8 -4 -13 -9 -20 -12 -18 -2 3 0 15 7 26 11 22 30 20
30 -2z m1563 -17 c3 -11 1 -20 -4 -20 -5 0 -9 9 -9 20 0 11 2 20 4 20 2 0 6
-9 9 -20z m-1537 -32 c-19 -27 -21 -19 -4 18 7 14 14 21 16 15 2 -6 -4 -21
-12 -33z m-171 22 c-3 -5 -12 -10 -18 -10 -7 0 -6 4 3 10 19 12 23 12 15 0z
m421 -26 c-10 -14 -20 -23 -23 -21 -6 6 30 57 36 51 2 -2 -4 -15 -13 -30z
m291 14 c-3 -8 -6 -5 -6 6 -1 11 2 17 5 13 3 -3 4 -12 1 -19z m449 -61 c-3
-16 -6 -38 -6 -49 0 -10 -4 -16 -10 -13 -14 9 -12 -26 3 -44 8 -11 10 -34 6
-71 l-6 -55 -1 58 c-1 31 -6 57 -11 57 -15 0 -29 130 -17 162 l11 29 18 -23
c13 -15 17 -31 13 -51z m-1276 59 c0 -3 -4 -8 -10 -11 -5 -3 -10 -1 -10 4 0 6
5 11 10 11 6 0 10 -2 10 -4z m977 -28 c-3 -8 -6 -5 -6 6 -1 11 2 17 5 13 3 -3
4 -12 1 -19z m494 -101 c-7 -28 -7 -47 0 -60 6 -10 8 -21 5 -25 -13 -12 -21
12 -22 66 -1 31 -4 73 -8 92 l-7 35 21 -34 c19 -29 20 -40 11 -74z m-1350 56
c-12 -20 -14 -14 -5 12 4 9 9 14 11 11 3 -2 0 -13 -6 -23z m1076 -25 c-3 -7
-5 -2 -5 12 0 14 2 19 5 13 2 -7 2 -19 0 -25z m-75 -15 c-6 -65 -10 -70 -11
-15 0 28 3 52 7 52 4 0 6 -17 4 -37z m-989 -11 c-3 -12 -9 -22 -14 -22 -5 0
-3 11 3 25 13 30 20 28 11 -3z m394 6 c-3 -8 -6 -5 -6 6 -1 11 2 17 5 13 3 -3
4 -12 1 -19z m504 -73 c-8 -46 -9 -47 -10 -13 -1 34 8 73 15 66 2 -2 -1 -26
-5 -53z m-524 23 c-3 -8 -6 -5 -6 6 -1 11 2 17 5 13 3 -3 4 -12 1 -19z m503
-18 c-8 -42 -20 -65 -20 -38 0 29 12 78 20 78 4 0 4 -18 0 -40z m-623 8 c-3
-8 -6 -5 -6 6 -1 11 2 17 5 13 3 -3 4 -12 1 -19z m1443 -19 c0 -10 5 -19 12
-19 6 0 8 -3 5 -7 -4 -3 4 -26 18 -49 14 -24 21 -45 16 -48 -5 -3 -14 8 -20
24 -13 39 -25 39 -17 0 3 -16 3 -30 1 -30 -11 0 -36 63 -31 76 3 9 1 12 -4 9
-6 -3 -9 5 -8 19 1 13 6 22 10 20 13 -8 9 11 -4 25 -11 10 -10 11 5 6 9 -4 17
-16 17 -26z m-1734 -5 c-4 -9 -9 -15 -11 -12 -3 3 -3 13 1 22 4 9 9 15 11 12
3 -3 3 -13 -1 -22z m38 -8 c-3 -15 -8 -25 -11 -23 -2 3 -1 17 3 31 3 15 8 25
11 23 2 -3 1 -17 -3 -31z m1551 -104 c-11 -12 -13 6 -7 73 l7 70 3 -69 c2 -37
0 -71 -3 -74z m-1185 98 c-6 -11 -13 -41 -16 -67 -13 -122 -17 -143 -25 -143
-16 0 -26 42 -18 69 4 14 13 46 20 71 17 66 32 99 41 94 4 -3 3 -14 -2 -24z
m457 -17 c-3 -10 -5 -4 -5 12 0 17 2 24 5 18 2 -7 2 -21 0 -30z m-440 -5 c-3
-8 -6 -5 -6 6 -1 11 2 17 5 13 3 -3 4 -12 1 -19z m431 -18 c4 0 6 -36 4 -81
-2 -44 -5 -79 -8 -77 -2 3 -6 47 -7 99 -2 52 -2 86 0 77 3 -10 8 -18 11 -18z
m719 -2 c-3 -8 -6 -5 -6 6 -1 11 2 17 5 13 3 -3 4 -12 1 -19z m-667 2 c0 -5
-4 -10 -10 -10 -5 0 -10 5 -10 10 0 6 5 10 10 10 6 0 10 -4 10 -10z m-118 -40
c-2 -16 -6 -30 -8 -30 -2 0 -4 14 -4 30 0 17 4 30 8 30 5 0 7 -13 4 -30z m595
-12 c-3 -7 -5 -2 -5 12 0 14 2 19 5 13 2 -7 2 -19 0 -25z m792 28 c-8 -9 -160
-37 -172 -33 -25 10 61 36 117 37 33 0 57 -2 55 -4z m-1278 -57 l-9 -44 -1 41
c-1 22 2 44 6 47 12 12 13 1 4 -44z m62 -59 c4 -36 3 -48 -3 -35 -8 19 -14
103 -6 94 2 -2 6 -29 9 -59z m216 15 c0 -5 -4 -3 -9 5 -5 8 -9 22 -9 30 0 16
17 -16 18 -35z m-763 -2 c-11 -11 -19 6 -11 24 8 17 8 17 12 0 3 -10 2 -21 -1
-24z m1171 -15 c-3 -7 -5 -2 -5 12 0 14 2 19 5 13 2 -7 2 -19 0 -25z m-830
-30 c-3 -7 -5 -2 -5 12 0 14 2 19 5 13 2 -7 2 -19 0 -25z m-230 -10 c-3 -8 -6
-5 -6 6 -1 11 2 17 5 13 3 -3 4 -12 1 -19z m857 -67 c1 -50 -3 -91 -11 -108
-12 -25 -12 -26 -6 -3 3 14 5 65 4 115 -1 49 1 87 4 83 4 -4 8 -43 9 -87z
m-345 16 c1 -10 -3 -15 -9 -12 -5 3 -10 23 -9 43 1 33 2 34 9 12 4 -14 8 -33
9 -43z m-192 -9 c-2 -13 -4 -3 -4 22 0 25 2 35 4 23 2 -13 2 -33 0 -45z m-500
30 c-3 -8 -6 -5 -6 6 -1 11 2 17 5 13 3 -3 4 -12 1 -19z m543 -38 c0 -16 -3
-30 -7 -30 -5 0 -8 -20 -9 -45 0 -24 -5 -50 -10 -57 -5 -7 -7 -66 -3 -133 3
-66 7 -104 9 -85 2 19 2 54 1 78 -2 23 2 42 7 42 6 0 13 10 15 23 3 18 5 16 6
-8 l3 -30 13 30 c14 30 14 30 15 -25 0 -45 3 -52 12 -36 6 11 11 38 11 60 0
30 2 36 8 21 5 -14 8 -2 8 36 1 74 12 149 21 149 10 0 29 -107 23 -131 -3 -9
0 -25 5 -35 7 -13 9 2 8 54 -1 44 2 66 7 56 15 -26 -6 -205 -47 -394 -3 -14
-8 -37 -12 -52 -3 -16 -10 -28 -16 -28 -6 0 -8 -10 -4 -24 3 -13 -1 -62 -9
-108 -8 -45 -15 -123 -15 -173 0 -49 -4 -84 -8 -77 -5 7 -7 -16 -4 -50 2 -48
1 -60 -8 -48 -9 11 -10 -1 -8 -52 2 -37 1 -65 -3 -62 -11 6 -18 -50 -25 -191
-4 -86 -11 -133 -19 -140 -7 -6 -15 -19 -18 -30 -3 -13 -5 -10 -6 12 0 17 -6
33 -13 35 -15 5 -39 89 -29 103 5 5 7 18 5 29 -1 10 1 28 5 40 5 11 12 63 15
114 6 84 5 95 -12 110 -18 15 -19 25 -12 102 7 82 7 83 9 25 2 -33 5 -53 8
-45 2 8 7 21 9 29 9 29 13 4 4 -33 -5 -21 -5 -48 0 -60 5 -11 9 -15 9 -8 1 7
5 11 10 8 17 -11 20 77 3 106 -12 21 -13 32 -4 52 6 13 8 41 5 61 -4 25 -2 40
7 45 10 6 11 12 3 22 -8 9 -8 30 -2 68 19 117 17 279 -4 243 -2 -5 -2 -1 1 7
3 8 4 22 4 30 -7 89 -8 340 -1 325 6 -17 8 -15 8 11 1 47 12 94 22 94 5 0 9
-13 9 -30z m272 -2 c-6 -6 -12 -6 -17 3 -5 8 -4 10 3 5 7 -4 12 0 13 11 0 12
2 13 6 5 3 -8 1 -18 -5 -24z m-985 -20 c-3 -8 -6 -5 -6 6 -1 11 2 17 5 13 3
-3 4 -12 1 -19z m370 -15 c-3 -10 -5 -4 -5 12 0 17 2 24 5 18 2 -7 2 -21 0
-30z m383 -5 c0 -16 -3 -19 -11 -11 -6 6 -8 16 -5 22 11 17 16 13 16 -11z
m227 -30 c-3 -7 -5 -2 -5 12 0 14 2 19 5 13 2 -7 2 -19 0 -25z m-615 -10 c-7
-7 -12 -8 -12 -2 0 14 12 26 19 19 2 -3 -1 -11 -7 -17z m-582 -37 c-10 -22
-19 -54 -18 -73 1 -36 -16 -78 -32 -78 -12 0 -12 11 -3 63 4 27 9 35 15 25 6
-9 8 -7 6 8 -3 22 31 94 44 94 5 0 -1 -18 -12 -39z m180 -61 l-8 -35 -1 45
c-1 27 3 40 8 35 6 -6 6 -25 1 -45z m1011 -11 c-9 -22 -10 -22 -10 -3 -1 11 2
24 6 27 12 12 14 0 4 -24z m86 -1 c-3 -8 -6 -5 -6 6 -1 11 2 17 5 13 3 -3 4
-12 1 -19z m-672 -175 c-2 -7 0 -13 5 -13 6 0 10 -8 10 -17 0 -15 -2 -15 -9
-4 -7 10 -11 0 -16 -35 -13 -102 -21 -106 -17 -9 3 55 4 125 4 155 l0 55 13
-60 c8 -33 12 -66 10 -72z m-425 97 c0 -5 -2 -10 -4 -10 -3 0 -8 5 -11 10 -3
6 -1 10 4 10 6 0 11 -4 11 -10z m272 -12 c-7 -7 -12 -8 -12 -2 0 14 12 26 19
19 2 -3 -1 -11 -7 -17z m1047 -45 c-7 -26 -21 -63 -31 -83 -21 -39 -20 -36 13
66 27 80 39 92 18 17z m-1529 11 c-14 -35 -12 -42 5 -20 13 17 15 17 15 4 0
-9 -7 -24 -16 -32 -9 -9 -17 -35 -19 -59 -2 -23 -8 -64 -14 -92 -7 -27 -14
-67 -18 -88 -3 -21 -10 -40 -14 -43 -5 -3 -9 -21 -9 -40 0 -22 -4 -33 -11 -29
-6 4 -8 13 -5 21 3 8 -1 17 -9 20 -16 7 -12 65 8 114 6 14 12 36 14 50 8 59
26 120 34 120 5 0 9 15 9 33 0 24 -3 28 -10 17 -13 -19 -13 -8 0 25 5 14 14
23 20 20 5 -3 10 -1 10 5 0 6 4 9 10 5 6 -4 6 -15 0 -31z m27 14 c-3 -8 -6 -5
-6 6 -1 11 2 17 5 13 3 -3 4 -12 1 -19z m1180 -10 c-3 -7 -5 -2 -5 12 0 14 2
19 5 13 2 -7 2 -19 0 -25z m100 10 c-3 -8 -6 -5 -6 6 -1 11 2 17 5 13 3 -3 4
-12 1 -19z m731 -50 c6 -39 7 -79 2 -95 -7 -25 -8 -23 -9 17 -1 25 -4 70 -7
100 -9 76 2 60 14 -22z m-1798 12 c-16 -31 -23 -19 -9 16 6 16 13 24 16 17 2
-7 -1 -22 -7 -33z m1065 -138 c-11 -105 -18 -61 -9 55 7 81 10 95 12 58 2 -27
1 -78 -3 -113z m-1099 132 c-3 -9 -6 -27 -6 -40 0 -14 -6 -24 -14 -24 -11 0
-11 8 -3 40 6 22 15 40 20 40 5 0 6 -7 3 -16z m1242 -27 c-6 -17 -13 -38 -15
-46 -2 -8 -5 -12 -7 -10 -8 7 17 98 25 94 4 -3 2 -20 -3 -38z m-868 -4 c-11
-17 -11 -17 -6 0 3 10 6 24 7 30 0 9 2 9 5 0 3 -7 0 -20 -6 -30z m77 15 c-3
-8 -6 -5 -6 6 -1 11 2 17 5 13 3 -3 4 -12 1 -19z m-606 -61 c-13 -13 -15 11
-4 40 7 16 8 15 11 -6 2 -13 -1 -28 -7 -34z m1884 -34 c4 -34 3 -59 -6 -74 -7
-14 -8 -24 -2 -26 6 -2 7 -18 2 -41 -5 -20 -17 -89 -28 -152 l-20 -115 5 80
c3 44 9 112 15 151 5 39 11 114 12 167 2 98 9 102 22 10z m-1725 -3 l-11 -25
6 25 c2 14 5 34 6 45 2 19 2 19 6 0 2 -12 -1 -32 -7 -45z m1669 -87 c-1 -119
-12 -229 -19 -183 -5 39 -5 112 1 115 3 3 5 49 4 105 -1 55 2 100 7 100 4 0 7
-62 7 -137z m-1704 117 c3 -5 1 -10 -4 -10 -6 0 -11 5 -11 10 0 6 2 10 4 10 3
0 8 -4 11 -10z m316 -23 c-10 -9 -11 -8 -5 6 3 10 9 15 12 12 3 -3 0 -11 -7
-18z m-129 -22 c-6 -34 -12 -32 -12 6 0 16 4 28 9 25 4 -3 6 -17 3 -31z m-195
-12 c-3 -10 -5 -4 -5 12 0 17 2 24 5 18 2 -7 2 -21 0 -30z m1263 17 c0 -11 -4
-20 -10 -20 -5 0 -10 9 -10 20 0 11 5 20 10 20 6 0 10 -9 10 -20z m36 -13 c-9
-13 -23 -55 -31 -92 -17 -81 -30 -100 -22 -30 10 79 20 108 45 138 21 24 27
14 8 -16z m-1031 -34 c-9 -50 -17 -34 -9 18 4 24 9 38 12 31 2 -7 1 -29 -3
-49z m86 38 c12 19 11 -24 -2 -80 -7 -32 -7 -46 2 -51 8 -5 8 -13 1 -27 -6
-11 -14 -54 -18 -96 -4 -42 -11 -77 -15 -77 -5 0 -8 -17 -8 -37 1 -24 3 -30 6
-15 2 12 8 20 13 17 9 -6 1 -45 -10 -45 -4 0 -6 -31 -5 -70 1 -38 -2 -70 -6
-70 -5 0 -9 12 -9 26 0 14 -4 23 -10 19 -5 -3 -10 -18 -10 -33 0 -15 -5 -34
-10 -42 -7 -10 -8 1 -5 35 3 28 9 51 14 53 4 1 6 14 3 27 -2 14 -1 33 3 42 5
10 10 36 11 58 3 38 2 39 -12 20 -8 -11 -13 -30 -11 -43 2 -12 0 -25 -4 -28
-5 -3 -9 1 -9 10 0 8 -4 16 -10 18 -6 2 -4 19 5 43 8 22 14 54 15 71 0 16 7
39 16 50 15 18 15 18 9 -6 -14 -51 -18 -95 -7 -85 6 6 14 37 17 69 6 47 5 57
-5 51 -10 -6 -12 -1 -6 26 3 18 11 38 18 44 8 7 9 5 5 -7 -4 -10 -2 -28 3 -40
7 -18 9 -10 11 37 2 33 2 80 2 105 0 25 2 39 4 31 5 -11 7 -11 14 0z m584 -33
c-3 -24 -10 -110 -16 -193 -12 -166 -16 -195 -27 -195 -11 0 -6 107 7 173 7
31 13 96 14 142 1 47 5 85 10 85 4 0 7 7 7 15 0 8 2 15 5 15 2 0 2 -19 0 -42z
m-634 -5 c-8 -15 -10 -15 -11 -2 0 17 10 32 18 25 2 -3 -1 -13 -7 -23z m865
-61 c-12 -11 -15 5 -8 44 l7 39 3 -39 c2 -21 1 -41 -2 -44z m711 56 c-3 -8 -6
-5 -6 6 -1 11 2 17 5 13 3 -3 4 -12 1 -19z m-1160 -10 c-3 -8 -6 -5 -6 6 -1
11 2 17 5 13 3 -3 4 -12 1 -19z m-696 -21 c-8 -8 -11 -7 -11 4 0 20 13 34 18
19 3 -7 -1 -17 -7 -23z m989 2 c0 -11 -4 -18 -10 -14 -5 3 -7 12 -3 20 7 21
13 19 13 -6z m-690 -2 c0 -20 -27 -53 -36 -44 -5 4 -2 12 5 17 8 4 11 15 8 24
-4 10 -1 16 8 16 8 0 15 -6 15 -13z m1005 -49 c-2 -35 -4 -74 -5 -88 -1 -23
-2 -23 -10 -5 -12 28 -12 98 0 129 15 41 19 31 15 -36z m-875 43 c0 -9 -20
-37 -20 -29 0 3 -2 13 -5 21 -4 8 0 14 10 14 8 0 15 -3 15 -6z m750 -88 c0
-103 -8 -120 -15 -32 -4 51 3 129 11 129 2 0 4 -44 4 -97z m-60 77 c0 -5 -5
-10 -11 -10 -5 0 -7 5 -4 10 3 6 8 10 11 10 2 0 4 -4 4 -10z m207 -32 c-3 -7
-5 -2 -5 12 0 14 2 19 5 13 2 -7 2 -19 0 -25z m-919 -29 c-1 -17 -7 -33 -12
-36 -5 -4 -6 4 -3 18 4 13 7 30 7 37 0 6 2 12 5 12 3 0 4 -14 3 -31z m279 9
c-3 -8 -6 -5 -6 6 -1 11 2 17 5 13 3 -3 4 -12 1 -19z m-50 -25 c-3 -10 -5 -4
-5 12 0 17 2 24 5 18 2 -7 2 -21 0 -30z m-824 -32 c-8 -32 -18 -25 -20 14 -1
30 1 33 12 21 8 -7 11 -23 8 -35z m1537 28 c0 -5 4 -8 9 -5 11 7 21 -28 21
-76 0 -25 6 -40 18 -47 14 -9 15 -12 3 -20 -8 -5 -13 -26 -13 -52 l1 -44 -20
25 -20 25 5 -40 c3 -22 9 -71 15 -110 5 -38 8 -72 6 -73 -2 -2 -12 5 -22 15
-13 13 -20 36 -22 68 -1 27 -5 53 -8 58 -3 6 -7 53 -9 106 -2 67 0 90 7 76 7
-15 8 -8 4 27 -2 26 -2 54 1 63 7 17 24 20 24 4z m-263 -41 c-3 -7 -5 -2 -5
12 0 14 2 19 5 13 2 -7 2 -19 0 -25z m533 23 c0 -6 -4 -13 -10 -16 -5 -3 -10
1 -10 9 0 9 5 16 10 16 6 0 10 -4 10 -9z m-353 -45 c-1 -25 4 -50 12 -60 11
-13 16 -50 17 -129 2 -65 11 -146 22 -194 11 -48 15 -88 10 -95 -4 -7 -8 -33
-7 -58 1 -51 -5 -98 -15 -107 -3 -3 -6 8 -6 25 0 17 5 34 10 37 14 9 12 21 -4
38 -8 7 -14 31 -13 53 0 46 -12 152 -20 174 -3 8 -7 47 -8 85 -2 39 -6 104
-10 146 -5 65 0 129 10 129 2 0 3 -20 2 -44z m130 22 c-3 -8 -6 -5 -6 6 -1 11
2 17 5 13 3 -3 4 -12 1 -19z m60 -10 c-3 -7 -5 -2 -5 12 0 14 2 19 5 13 2 -7
2 -19 0 -25z m-1776 -20 c-3 -21 -6 -26 -9 -15 -3 17 3 47 11 47 2 0 1 -15 -2
-32z m679 -9 c-5 -18 -12 -34 -16 -38 -4 -3 -4 2 -1 12 4 10 7 27 7 38 0 10 4
19 9 19 6 0 6 -12 1 -31z m24 -6 c-4 -16 -10 -32 -15 -37 -5 -5 -4 6 1 25 6
18 10 35 10 36 0 2 2 3 5 3 3 0 2 -12 -1 -27z m1242 -73 c-1 -55 1 -100 5
-100 4 0 10 -16 14 -36 9 -52 14 -183 6 -160 -7 19 -8 19 -15 0 -7 -18 -8 -18
-17 -1 -12 21 -2 100 12 91 13 -8 11 30 -3 44 -7 7 -13 48 -14 105 -1 51 -5
103 -9 116 -6 19 4 39 21 41 1 0 1 -45 0 -100z m-1807 50 c5 0 6 -15 1 -37 -5
-20 -6 -41 -3 -46 3 -6 1 -7 -5 -3 -7 4 -9 18 -6 31 3 13 3 34 -2 47 l-7 23
-9 -24 c-4 -13 -11 -21 -14 -18 -4 3 0 20 7 36 12 28 14 29 21 11 4 -11 12
-20 17 -20z m836 10 c3 -5 3 -15 -1 -21 -6 -11 -23 6 -24 24 0 10 18 9 25 -3z
m645 -4 c0 -3 -4 -8 -10 -11 -5 -3 -10 -1 -10 4 0 6 5 11 10 11 6 0 10 -2 10
-4z m-1570 -13 c0 -5 -5 -15 -10 -23 -8 -12 -10 -11 -10 8 0 12 5 22 10 22 6
0 10 -3 10 -7z m947 -25 c-3 -7 -5 -2 -5 12 0 14 2 19 5 13 2 -7 2 -19 0 -25z
m-980 -10 c-3 -7 -5 -2 -5 12 0 14 2 19 5 13 2 -7 2 -19 0 -25z m487 -7 c-4
-17 -9 -30 -11 -27 -3 2 -2 19 2 36 9 41 17 33 9 -9z m1481 -56 l-15 -80 5 65
c3 60 13 105 21 98 1 -2 -4 -39 -11 -83z m-1932 50 c-3 -9 -8 -14 -10 -11 -3
3 -2 9 2 15 9 16 15 13 8 -4z m634 -7 c-3 -8 -6 -5 -6 6 -1 11 2 17 5 13 3 -3
4 -12 1 -19z m-166 -15 c-12 -20 -14 -14 -5 12 4 9 9 14 11 11 3 -2 0 -13 -6
-23z m-328 -35 c-7 -56 -13 -62 -13 -11 0 33 6 53 15 53 1 0 0 -19 -2 -42z
m-173 -18 l-8 -35 -1 45 c-1 27 3 40 8 35 6 -6 6 -25 1 -45z m141 7 c-5 -7
-12 -37 -15 -67 -7 -67 -26 -92 -26 -32 0 39 7 64 34 121 9 19 12 21 14 7 2
-9 -1 -23 -7 -29z m516 11 c-3 -8 -6 -5 -6 6 -1 11 2 17 5 13 3 -3 4 -12 1
-19z m-171 -24 c-4 -9 -9 -15 -11 -12 -3 3 -3 13 1 22 4 9 9 15 11 12 3 -3 3
-13 -1 -22z m53 -31 c1 -7 -3 -13 -9 -13 -5 0 -10 15 -9 33 0 27 2 29 9 12 5
-11 9 -26 9 -32z m-618 -10 c-9 -16 -10 -16 -11 -1 0 9 -3 25 -7 35 -7 17 -6
17 11 1 13 -13 15 -22 7 -35z m1759 14 c0 -5 -4 -5 -10 -2 -5 3 -10 14 -10 23
0 15 2 15 10 2 5 -8 10 -19 10 -23z m299 -51 c-9 -8 -10 -5 -5 14 3 14 7 36 8
50 1 14 3 8 5 -14 3 -22 -1 -43 -8 -50z m-797 35 c-8 -4 -13 -14 -12 -22 5
-32 0 -152 -6 -146 -8 8 -7 175 2 188 4 7 10 7 18 -1 8 -8 7 -13 -2 -19z
m-485 -3 c-3 -8 -6 -5 -6 6 -1 11 2 17 5 13 3 -3 4 -12 1 -19z m-227 -29 c0
-16 -4 -29 -10 -29 -5 0 -9 16 -8 35 1 41 18 36 18 -6z m-484 -74 c-14 -38
-22 -73 -20 -77 3 -5 2 -14 -3 -21 -5 -7 -10 -25 -11 -40 -1 -15 -6 -37 -12
-47 -5 -10 -10 -32 -10 -48 0 -26 -25 -102 -33 -102 -8 0 6 116 14 126 6 7 4
16 -5 23 -10 8 -12 21 -6 47 11 50 19 54 13 6 -3 -22 -1 -42 3 -45 5 -3 10 12
12 33 1 21 13 63 26 93 14 30 28 72 32 93 8 47 17 65 22 43 1 -9 -8 -47 -22
-84z m534 75 c-7 -4 -9 -13 -6 -19 4 -6 2 -11 -3 -11 -12 0 -14 11 -5 34 3 9
11 13 16 10 6 -4 6 -9 -2 -14z m-584 -59 c4 -20 7 -22 16 -10 8 11 9 10 4 -4
-3 -10 -6 -24 -7 -30 -2 -25 -28 50 -27 78 0 19 2 23 5 10 2 -11 6 -31 9 -44z
m744 -8 c-11 -17 -11 -17 -6 0 3 10 7 31 7 45 l2 27 4 -27 c2 -15 -1 -35 -7
-45z m1031 10 c-9 -16 -10 -15 -11 8 0 14 3 29 8 33 12 12 14 -22 3 -41z
m-1624 -5 c-3 -8 -6 -5 -6 6 -1 11 2 17 5 13 3 -3 4 -12 1 -19z m530 -30 c-3
-8 -6 -5 -6 6 -1 11 2 17 5 13 3 -3 4 -12 1 -19z m30 0 c-3 -8 -6 -5 -6 6 -1
11 2 17 5 13 3 -3 4 -12 1 -19z m550 -10 c-3 -7 -5 -2 -5 12 0 14 2 19 5 13 2
-7 2 -19 0 -25z m-1107 -3 c0 -8 -4 -17 -10 -20 -6 -4 -10 5 -10 20 0 15 4 24
10 20 6 -3 10 -12 10 -20z m491 -33 c-4 -28 -4 -57 0 -64 5 -7 6 -24 2 -38 -5
-25 -5 -25 12 -5 16 19 16 18 9 -30 -4 -27 -8 -71 -8 -97 -1 -76 -24 -39 -25
40 0 37 -2 99 -3 137 -2 39 1 80 6 93 14 33 16 22 7 -36z m1126 11 c-3 -10 -5
-4 -5 12 0 17 2 24 5 18 2 -7 2 -21 0 -30z m-1268 -20 c-5 -27 -11 -73 -14
-103 -6 -57 -19 -89 -31 -78 -3 4 1 25 9 47 10 24 14 53 10 75 -4 23 0 48 11
71 9 19 18 35 20 35 2 0 -1 -21 -5 -47z m1251 6 c6 -11 9 -28 7 -37 -3 -12 -5
-10 -6 6 0 13 -13 35 -28 49 -23 21 -24 24 -6 14 13 -6 27 -21 33 -32z m-1051
-9 c6 -19 7 -30 2 -25 -5 6 -13 24 -17 40 -9 39 0 30 15 -15z m-712 -2 c-3 -8
-6 -5 -6 6 -1 11 2 17 5 13 3 -3 4 -12 1 -19z m1743 -16 c0 -15 -2 -15 -10 -2
-13 20 -13 33 0 25 6 -3 10 -14 10 -23z m-509 -19 c-8 -15 -10 -15 -11 -2 0
17 10 32 18 25 2 -3 -1 -13 -7 -23z m799 17 c0 -5 -2 -10 -4 -10 -3 0 -8 5
-11 10 -3 6 -1 10 4 10 6 0 11 -4 11 -10z m-1767 -15 c-3 -9 -8 -14 -10 -11
-3 3 -2 9 2 15 9 16 15 13 8 -4z m1726 -69 c-9 -8 -10 -7 -5 7 3 10 7 28 7 40
2 16 3 14 6 -7 3 -16 -1 -34 -8 -40z m-709 50 c0 -3 -4 -8 -10 -11 -5 -3 -10
-1 -10 4 0 6 5 11 10 11 6 0 10 -2 10 -4z m-683 -38 c-3 -8 -6 -5 -6 6 -1 11
2 17 5 13 3 -3 4 -12 1 -19z m1142 -21 c1 -5 -3 -5 -9 -2 -12 8 -13 -8 -1 -20
11 -13 26 -123 15 -112 -14 13 -34 129 -27 156 6 23 7 24 14 6 4 -11 8 -24 8
-28z m34 6 c-3 -24 -2 -25 6 -8 10 22 11 21 15 -13 2 -16 -1 -21 -12 -17 -10
3 -12 0 -8 -10 3 -8 1 -15 -4 -15 -6 0 -10 20 -10 45 0 25 4 45 9 45 4 0 7
-12 4 -27z m-1072 -10 c-8 -15 -10 -15 -11 -2 0 17 10 32 18 25 2 -3 -1 -13
-7 -23z m572 -90 c-2 -64 -5 -119 -8 -121 -3 -3 -5 46 -5 110 0 94 4 128 14
128 1 0 0 -52 -1 -117z m562 88 c3 -5 1 -12 -5 -16 -5 -3 -10 1 -10 9 0 18 6
21 15 7z m172 -13 c-3 -8 -6 -5 -6 6 -1 11 2 17 5 13 3 -3 4 -12 1 -19z
m-1280 -30 c-3 -7 -5 -2 -5 12 0 14 2 19 5 13 2 -7 2 -19 0 -25z m-880 -10
c-3 -8 -6 -5 -6 6 -1 11 2 17 5 13 3 -3 4 -12 1 -19z m23 -48 c-9 -41 -16 -58
-23 -51 -7 7 -7 14 0 23 6 7 14 32 18 56 4 24 9 41 12 38 3 -3 0 -33 -7 -66z
m1954 21 c-4 -17 -9 -30 -11 -27 -3 2 -2 19 2 36 9 41 17 33 9 -9z m-1209 -3
c-8 -37 -25 -61 -25 -36 0 21 18 68 26 68 3 0 3 -15 -1 -32z m1185 -22 c0 -11
-7 -30 -15 -40 -15 -19 -15 -19 -15 3 0 12 4 19 10 16 6 -3 10 3 10 14 0 11
-4 23 -10 26 -5 3 -10 11 -10 17 0 7 6 6 15 -2 8 -7 15 -22 15 -34z m-1080
-87 c9 -55 9 -82 2 -95 -10 -16 -11 -14 -7 13 2 17 -2 47 -9 66 l-12 35 -13
-31 c-7 -18 -17 -41 -21 -52 -5 -11 -12 -39 -15 -62 -4 -24 -11 -43 -17 -43
-17 0 3 75 45 170 11 25 20 59 19 75 -3 54 15 5 28 -76z m-823 59 c-3 -7 -5
-2 -5 12 0 14 2 19 5 13 2 -7 2 -19 0 -25z m455 10 c-7 -7 -12 -8 -12 -2 0 14
12 26 19 19 2 -3 -1 -11 -7 -17z m1321 -55 c-8 -65 -13 -67 -13 -5 0 29 4 52
10 52 6 0 7 -19 3 -47z m-1323 33 c0 -3 -4 -8 -10 -11 -5 -3 -10 -1 -10 4 0 6
5 11 10 11 6 0 10 -2 10 -4z m-468 -48 c-6 -6 -7 0 -4 19 5 21 7 23 10 9 2
-10 0 -22 -6 -28z m88 22 c0 -5 -2 -10 -4 -10 -3 0 -8 5 -11 10 -3 6 -1 10 4
10 6 0 11 -4 11 -10z m670 -5 c0 -8 -2 -15 -4 -15 -2 0 -6 7 -10 15 -3 8 -1
15 4 15 6 0 10 -7 10 -15z m393 -10 c-3 -9 -8 -14 -10 -11 -3 3 -2 9 2 15 9
16 15 13 8 -4z m-602 -36 l-10 -24 0 26 c-1 14 2 29 6 33 12 12 14 -9 4 -35z
m46 9 c-3 -7 -5 -2 -5 12 0 14 2 19 5 13 2 -7 2 -19 0 -25z m89 -4 c-4 -9 -9
-15 -11 -12 -3 3 -3 13 1 22 4 9 9 15 11 12 3 -3 3 -13 -1 -22z m411 4 c-3 -8
-6 -5 -6 6 -1 11 2 17 5 13 3 -3 4 -12 1 -19z m30 0 c-3 -8 -6 -5 -6 6 -1 11
2 17 5 13 3 -3 4 -12 1 -19z m-1049 -11 c-1 -13 -8 -24 -15 -24 -16 0 -16 3
-3 28 14 25 20 24 18 -4z m662 -2 c0 -8 -4 -15 -10 -15 -5 0 -7 7 -4 15 4 8 8
15 10 15 2 0 4 -7 4 -15z m440 -15 c0 -13 -6 -20 -17 -19 -11 0 -13 3 -5 6 6
2 12 11 12 19 0 8 2 14 5 14 3 0 5 -9 5 -20z m-498 -32 c-8 -8 -9 -4 -5 13 4
13 8 18 11 10 2 -7 -1 -18 -6 -23z m425 -10 c-3 -7 -5 -2 -5 12 0 14 2 19 5
13 2 -7 2 -19 0 -25z m-379 -14 c-5 -21 -8 -47 -5 -60 2 -13 1 -21 -3 -19 -10
6 -20 84 -13 101 3 8 11 14 18 14 11 0 11 -8 3 -36z m655 -54 c-14 -13 -15
-13 -9 3 3 10 7 35 7 55 l1 37 8 -40 c6 -31 5 -43 -7 -55z m-96 33 c-3 -10 -5
-4 -5 12 0 17 2 24 5 18 2 -7 2 -21 0 -30z m668 18 c3 -5 1 -12 -5 -16 -5 -3
-10 1 -10 9 0 18 6 21 15 7z m-880 -78 c-7 -28 -7 -28 -16 -5 -7 19 -7 44 1
72 1 3 6 -5 12 -17 6 -12 7 -34 3 -50z m-1109 5 c-9 -12 -16 -19 -16 -15 0 11
24 47 28 42 2 -2 -3 -14 -12 -27z m1333 -15 c1 -7 -3 -13 -9 -13 -5 0 -10 15
-9 33 0 27 2 29 9 12 5 -11 9 -26 9 -32z m-609 26 c0 -14 -26 -40 -33 -32 -8
8 11 43 23 43 6 0 10 -5 10 -11z m147 -11 c-3 -8 -6 -5 -6 6 -1 11 2 17 5 13
3 -3 4 -12 1 -19z m-912 2 c3 -5 1 -10 -4 -10 -6 0 -11 5 -11 10 0 6 2 10 4
10 3 0 8 -4 11 -10z"/>
<path d="M5727 4449 c7 -7 15 -10 18 -7 3 3 -2 9 -12 12 -14 6 -15 5 -6 -5z"/>
<path d="M5550 4441 c0 -5 7 -12 16 -15 14 -5 15 -4 4 9 -14 17 -20 19 -20 6z"/>
<path d="M5674 4439 c-3 -6 -1 -16 6 -22 10 -9 12 -8 7 5 -4 12 -2 15 8 12 10
-4 12 -15 8 -35 -4 -24 -3 -28 10 -23 9 3 13 12 10 20 -3 8 0 14 6 14 6 0 11
-6 11 -14 0 -7 7 -19 15 -26 18 -15 19 -9 3 25 -6 14 -17 25 -24 25 -6 0 -14
7 -18 15 -6 17 -32 20 -42 4z"/>
<path d="M5640 4419 c0 -6 8 -18 17 -27 16 -16 16 -16 10 1 -4 10 -7 23 -7 28
0 5 -4 9 -10 9 -5 0 -10 -5 -10 -11z"/>
<path d="M5546 4361 c-4 -7 -5 -15 -2 -18 9 -9 19 4 14 18 -4 11 -6 11 -12 0z"/>
<path d="M5485 4350 c-16 -7 -17 -9 -3 -9 9 -1 19 -7 21 -13 3 -7 6 -3 6 10 1
12 0 22 -1 21 -2 0 -12 -4 -23 -9z"/>
<path d="M5615 4320 c-3 -5 -1 -10 4 -10 6 0 11 5 11 10 0 6 -2 10 -4 10 -3 0
-8 -4 -11 -10z"/>
<path d="M5360 4340 c0 -5 5 -10 10 -10 6 0 10 5 10 10 0 6 -4 10 -10 10 -5 0
-10 -4 -10 -10z"/>
<path d="M6767 2543 c-4 -3 -7 -13 -7 -22 1 -13 3 -13 11 2 11 19 8 33 -4 20z"/>
<path d="M6742 2470 c0 -14 2 -19 5 -12 2 6 2 18 0 25 -3 6 -5 1 -5 -13z"/>
<path d="M6716 2438 c-5 -23 -12 -35 -19 -31 -7 4 -8 0 -4 -11 4 -10 7 -22 7
-28 0 -5 7 -2 16 6 10 11 14 29 12 58 l-4 43 -8 -37z"/>
<path d="M6747 2433 c-2 -5 -4 -62 -5 -128 0 -69 3 -111 7 -100 7 17 11 235 5
235 -2 0 -5 -3 -7 -7z"/>
<path d="M6902 2410 c0 -19 2 -27 5 -17 2 9 2 25 0 35 -3 9 -5 1 -5 -18z"/>
<path d="M6820 2305 c0 -27 2 -46 5 -44 7 8 9 78 2 85 -4 4 -7 -14 -7 -41z"/>
<path d="M6710 2325 c0 -8 5 -15 10 -15 6 0 10 7 10 15 0 8 -4 15 -10 15 -5 0
-10 -7 -10 -15z"/>
<path d="M6697 2283 c1 -7 6 -20 10 -30 5 -12 3 -14 -7 -8 -10 6 -12 4 -7 -9
4 -10 7 -24 7 -32 0 -8 3 -14 8 -14 4 0 8 23 9 51 2 28 -1 48 -6 44 -5 -3 -11
-2 -14 2 -2 5 -2 2 0 -4z"/>
<path d="M6760 2200 c0 -5 5 -10 10 -10 6 0 10 5 10 10 0 6 -4 10 -10 10 -5 0
-10 -4 -10 -10z"/>
<path d="M6761 2145 c-7 -116 -9 -207 -5 -190 19 78 16 73 24 40 6 -21 8 -7 9
48 0 42 -3 77 -8 77 -5 0 -12 12 -14 28 l-4 27 -2 -30z"/>
<path d="M6701 2144 c0 -11 3 -14 6 -6 3 7 2 16 -1 19 -3 4 -6 -2 -5 -13z"/>
<path d="M6719 2079 c0 -30 -2 -83 -4 -119 -3 -58 -3 -61 6 -25 9 41 12 185 4
194 -3 2 -5 -20 -6 -50z"/>
<path d="M6671 1774 c0 -11 3 -14 6 -6 3 7 2 16 -1 19 -3 4 -6 -2 -5 -13z"/>
<path d="M6170 2253 c0 -4 5 -15 10 -23 8 -13 10 -13 10 2 0 9 -4 20 -10 23
-5 3 -10 3 -10 -2z"/>
<path d="M6285 2278 c-11 -27 -2 -49 14 -38 12 7 12 14 4 32 -9 20 -12 21 -18
6z"/>
<path d="M5720 1662 c0 -22 4 -43 9 -46 9 -6 6 72 -3 82 -3 3 -6 -13 -6 -36z"/>
<path d="M5743 1538 c4 -10 2 -18 -3 -18 -6 0 -10 -5 -10 -12 0 -8 6 -6 17 5
14 14 15 19 4 29 -11 11 -13 10 -8 -4z"/>
<path d="M6411 2114 c0 -11 3 -14 6 -6 3 7 2 16 -1 19 -3 4 -6 -2 -5 -13z"/>
<path d="M6231 1468 c0 -33 2 -38 9 -23 12 28 12 65 0 65 -5 0 -10 -19 -9 -42z"/>
<path d="M6240 1401 c-5 -11 -10 -35 -10 -53 1 -28 2 -30 11 -15 10 17 21 87
13 87 -2 0 -8 -9 -14 -19z"/>
<path d="M6140 1368 c0 -15 5 -30 10 -33 13 -8 13 25 0 45 -8 12 -10 9 -10
-12z"/>
<path d="M6180 1284 c0 -37 2 -65 5 -62 10 10 13 118 4 124 -5 3 -9 -25 -9
-62z"/>
<path d="M6140 1306 c-8 -10 -8 -21 -2 -32 8 -14 10 -11 14 15 5 36 5 36 -12
17z"/>
<path d="M6140 1159 c0 -5 5 -7 10 -4 6 3 10 8 10 11 0 2 -4 4 -10 4 -5 0 -10
-5 -10 -11z"/>
<path d="M6092 400 c0 -14 2 -19 5 -12 2 6 2 18 0 25 -3 6 -5 1 -5 -13z"/>
<path d="M6081 334 c0 -11 3 -14 6 -6 3 7 2 16 -1 19 -3 4 -6 -2 -5 -13z"/>
<path d="M5132 1120 c0 -14 2 -19 5 -12 2 6 2 18 0 25 -3 6 -5 1 -5 -13z"/>
<path d="M6651 844 c0 -11 3 -14 6 -6 3 7 2 16 -1 19 -3 4 -6 -2 -5 -13z"/>
<path d="M11596 6925 c-25 -20 -46 -38 -46 -40 0 -6 89 55 95 66 11 16 -1 10
-49 -26z"/>
<path d="M11833 6603 c34 -31 130 -122 212 -202 216 -210 364 -345 372 -337 3
3 8 20 10 38 2 18 10 36 18 41 9 5 12 13 8 20 -11 17 -10 77 2 77 5 0 4 5 -3
12 -19 19 -14 29 13 22 19 -5 25 -2 25 10 0 9 7 16 15 16 31 0 13 16 -76 68
-162 97 -593 292 -642 292 -10 0 8 -22 46 -57z"/>
<path d="M12515 6270 c-3 -5 1 -10 10 -10 9 0 13 5 10 10 -3 6 -8 10 -10 10
-2 0 -7 -4 -10 -10z"/>
<path d="M12506 6045 c-3 -8 -1 -15 4 -15 6 0 10 7 10 15 0 8 -2 15 -4 15 -2
0 -6 -7 -10 -15z"/>
<path d="M6718 4633 c7 -3 16 -2 19 1 4 3 -2 6 -13 5 -11 0 -14 -3 -6 -6z"/>
<path d="M6488 4613 c7 -3 16 -2 19 1 4 3 -2 6 -13 5 -11 0 -14 -3 -6 -6z"/>
<path d="M6388 4603 c6 -2 18 -2 25 0 6 3 1 5 -13 5 -14 0 -19 -2 -12 -5z"/>
<path d="M7873 4115 c-35 -24 -57 -94 -44 -141 17 -62 49 -107 69 -99 19 9 43
9 89 0 27 -5 34 -1 54 26 22 31 40 131 23 128 -5 -1 -11 0 -14 1 -3 1 -20 3
-37 4 -22 2 -34 -3 -38 -13 -6 -17 -66 -51 -90 -51 -8 0 -15 7 -15 16 0 14 -3
14 -15 4 -13 -11 -15 -8 -15 21 1 43 19 75 56 100 17 11 23 19 14 19 -9 0 -25
-7 -37 -15z"/>
<path d="M7944 3420 c0 -85 2 -120 3 -77 2 42 2 112 0 155 -1 42 -3 7 -3 -78z"/>
<path d="M7982 3495 c0 -16 2 -22 5 -12 2 9 2 23 0 30 -3 6 -5 -1 -5 -18z"/>
<path d="M8014 3365 c0 -71 1 -99 3 -62 2 37 2 96 0 130 -2 34 -3 4 -3 -68z"/>
<path d="M7961 3264 c0 -11 3 -14 6 -6 3 7 2 16 -1 19 -3 4 -6 -2 -5 -13z"/>
<path d="M7957 3163 c-4 -3 -7 -74 -7 -156 0 -83 2 -148 4 -146 5 5 16 309 12
309 -1 0 -6 -3 -9 -7z"/>
<path d="M8013 3100 c0 -41 2 -58 4 -37 2 20 2 54 0 75 -2 20 -4 3 -4 -38z"/>
<path d="M7983 2800 c0 -47 2 -66 4 -42 2 23 2 61 0 85 -2 23 -4 4 -4 -43z"/>
<path d="M7445 2861 c-3 -6 1 -21 10 -33 16 -23 16 -23 9 7 -8 37 -10 39 -19
26z"/>
<path d="M7962 2745 c0 -16 2 -22 5 -12 2 9 2 23 0 30 -3 6 -5 -1 -5 -18z"/>
<path d="M7982 2640 c0 -19 2 -27 5 -17 2 9 2 25 0 35 -3 9 -5 1 -5 -18z"/>
<path d="M7738 2503 c7 -3 16 -2 19 1 4 3 -2 6 -13 5 -11 0 -14 -3 -6 -6z"/>
<path d="M4997 2433 c-4 -3 -7 -11 -7 -17 0 -6 5 -5 12 2 6 6 9 14 7 17 -3 3
-9 2 -12 -2z"/>
<path d="M5251 2381 c-10 -7 -11 -13 -2 -30 9 -16 9 -21 0 -21 -7 0 -9 -3 -6
-7 4 -3 2 -12 -4 -20 -18 -20 2 -15 26 7 16 15 20 29 17 50 -5 32 -9 35 -31
21z"/>
<path d="M5156 2353 c-6 -14 -5 -15 5 -6 7 7 10 15 7 18 -3 3 -9 -2 -12 -12z"/>
<path d="M5212 2340 c0 -14 2 -19 5 -12 2 6 2 18 0 25 -3 6 -5 1 -5 -13z"/>
<path d="M6482 2302 c3 -29 10 -58 16 -64 9 -9 10 3 5 43 -8 73 -27 92 -21 21z"/>
<path d="M6491 2204 c0 -11 3 -14 6 -6 3 7 2 16 -1 19 -3 4 -6 -2 -5 -13z"/>
<path d="M5091 2127 c-6 -8 -8 -17 -4 -20 3 -4 -1 -7 -9 -7 -18 0 -28 -20 -28
-58 l-1 -27 -13 24 -13 24 -13 -34 c-16 -45 -21 -81 -9 -74 13 8 11 -2 -5 -33
-19 -38 -24 -98 -7 -94 8 2 11 -5 7 -20 -4 -15 -1 -13 9 7 8 17 14 26 15 20 0
-5 5 -2 11 8 6 10 7 32 4 50 -7 30 -6 31 9 12 15 -19 15 -19 16 13 0 17 5 32
10 32 7 0 9 -15 5 -40 -5 -32 -3 -40 10 -40 8 0 15 5 15 10 0 6 -3 10 -7 10
-5 0 -6 22 -5 50 3 30 0 50 -6 50 -12 0 15 60 32 73 8 6 7 10 -1 13 -9 4 -9
13 -2 30 5 14 9 27 9 30 0 9 -18 3 -29 -9z"/>
<path d="M4802 2078 c-6 -6 -12 -19 -12 -27 0 -13 2 -13 16 1 9 9 15 21 13 27
-3 9 -8 8 -17 -1z"/>
<path d="M5337 1935 c-4 -8 -3 -16 1 -19 4 -3 9 4 9 15 2 23 -3 25 -10 4z"/>
<path d="M5563 1894 c-7 -7 -13 -21 -13 -31 1 -16 2 -16 12 2 6 11 16 23 21
26 5 4 5 9 1 12 -5 3 -15 -1 -21 -9z"/>
<path d="M4651 1857 c-14 -18 -41 -93 -35 -101 2 -3 -1 -2 -7 3 -8 6 -8 15 0
30 8 14 8 21 1 21 -5 0 -11 -8 -11 -17 -4 -39 -6 -49 -19 -83 -8 -19 -13 -38
-12 -42 1 -5 -3 -8 -9 -8 -5 0 -8 -4 -4 -9 3 -5 1 -12 -5 -16 -5 -3 -10 -13
-10 -21 0 -8 5 -12 10 -9 6 3 10 3 10 0 0 -9 -43 -68 -60 -81 -8 -7 -14 -27
-13 -48 1 -38 -14 -57 -28 -35 -9 16 -31 -30 -33 -73 0 -14 -4 -24 -8 -21 -5
2 -8 -1 -8 -6 0 -6 10 -11 21 -11 17 0 20 5 17 25 -4 16 -1 25 8 25 7 0 14 6
17 13 2 6 2 1 -1 -13 -5 -28 -9 -51 -18 -125 -3 -27 -10 -54 -16 -60 -6 -7 -8
-1 -5 15 2 14 2 19 0 12 -3 -7 -8 -10 -13 -7 -8 5 -2 -64 6 -74 2 -2 -1 -12
-7 -22 -7 -13 -6 -25 1 -37 9 -14 10 -13 4 7 -4 15 -2 21 4 17 5 -3 13 6 17
22 4 15 9 22 12 16 2 -6 -10 -49 -28 -95 -17 -46 -36 -109 -42 -139 -6 -30
-14 -57 -17 -60 -7 -6 -22 -40 -25 -55 0 -5 -5 -32 -10 -60 -5 -27 -8 -54 -6
-59 1 -5 -3 -12 -9 -16 -9 -6 -9 -12 0 -27 10 -15 10 -27 1 -49 l-11 -29 3 32
c2 18 -1 34 -7 36 -7 3 -12 -21 -13 -66 -2 -38 -8 -76 -14 -84 -14 -16 -21
-86 -8 -77 5 3 9 14 9 25 0 10 3 19 8 19 9 0 52 92 52 112 0 8 7 23 15 34 14
18 14 17 9 -16 -9 -55 -25 -101 -33 -96 -17 11 -58 -98 -67 -179 -3 -27 -11
-61 -18 -75 -6 -14 -9 -38 -5 -55 5 -23 7 -25 8 -7 0 12 6 22 12 22 14 0 2
-60 -17 -81 -8 -8 -14 -34 -14 -57 0 -40 1 -42 30 -42 23 0 30 4 28 16 -2 10
3 19 11 22 9 3 11 -1 6 -17 -3 -12 -2 -21 4 -21 5 0 12 8 14 18 4 16 5 16 6 0
1 -16 16 -18 161 -18 l160 0 0 40 c0 22 -5 40 -10 40 -7 0 -7 7 0 20 6 11 8
26 4 32 -5 7 -10 4 -15 -10 -5 -12 -13 -22 -19 -22 -6 0 -4 10 5 23 8 13 12
26 9 30 -4 3 2 5 14 2 17 -3 20 2 19 30 -1 27 -4 32 -14 23 -10 -8 -13 -6 -13
11 0 11 5 21 10 21 6 0 10 9 10 20 0 22 -15 27 -23 8 -4 -8 -6 -7 -6 3 -1 9 7
20 16 23 14 6 15 9 3 16 -11 7 -11 11 -1 23 19 23 33 240 22 342 -3 26 -21
-25 -21 -60 0 -54 -14 -75 -30 -46 -6 12 -9 27 -6 34 2 7 5 3 6 -8 l1 -20 8
20 c5 11 6 43 4 71 -5 55 6 73 30 49 13 -13 16 -13 21 1 3 9 5 30 5 47 l-1 32
-7 -29 c-3 -16 -11 -31 -18 -33 -16 -6 -12 77 5 95 6 7 11 25 11 40 l-2 27 -4
-27 c-2 -16 -9 -28 -14 -28 -6 0 -8 4 -5 8 3 5 7 39 10 77 3 37 9 71 13 74 10
8 15 128 7 161 l-7 25 -7 -25 c-5 -14 -8 -42 -9 -62 -1 -25 -6 -38 -14 -38 -8
0 -14 -7 -14 -15 0 -8 4 -12 9 -9 10 6 11 -10 1 -20 -4 -3 -7 -19 -8 -34 -1
-15 -9 -44 -18 -64 -9 -21 -17 -53 -17 -73 0 -19 -4 -35 -9 -35 -5 0 -8 -15
-6 -32 3 -44 -12 -85 -26 -71 -8 8 -7 28 4 70 8 33 10 60 5 62 -5 1 -3 8 5 15
17 12 39 127 28 139 -4 4 -17 -26 -30 -65 -12 -40 -25 -80 -27 -88 -5 -12 -8
-11 -21 5 l-16 20 8 -20 c15 -41 17 -64 5 -99 -6 -20 -16 -34 -21 -31 -5 4 -9
2 -9 -4 0 -5 4 -12 9 -16 6 -3 6 -17 1 -35 -5 -18 -5 -30 1 -30 5 0 9 -5 9
-11 0 -5 -4 -8 -9 -5 -5 3 -11 -12 -13 -34 -3 -33 -1 -39 13 -35 14 5 15 0 9
-37 -5 -24 -6 -47 -3 -52 4 -5 0 -6 -6 -1 -9 5 -11 18 -7 38 5 23 3 28 -4 21
-6 -6 -12 -32 -13 -57 -1 -25 -5 -48 -9 -52 -4 -4 -4 -14 -1 -23 5 -13 3 -14
-6 -6 -10 10 -11 43 -1 160 6 82 13 156 16 166 6 21 -15 35 -27 17 -5 -8 -3
-16 4 -21 9 -5 8 -12 -5 -24 -9 -9 -20 -14 -25 -11 -11 7 -5 65 8 73 16 10 9
24 -11 24 -18 0 -20 7 -20 58 0 40 3 53 10 42 5 -8 7 -23 4 -32 -7 -24 13 -23
26 1 15 29 13 54 -5 47 -17 -6 -19 2 -5 24 8 12 10 12 10 1 0 -47 40 95 55
194 4 27 13 62 20 76 11 20 11 29 2 38 -9 9 -9 14 1 19 6 5 14 28 16 53 2 25
12 81 22 124 10 44 18 96 19 115 1 50 24 148 46 197 11 24 19 49 19 56 0 7 5
18 10 23 10 10 32 74 26 74 -2 0 -9 -6 -15 -13z m-170 -634 c-9 -16 -10 -16
-11 -1 0 9 3 25 7 35 7 16 8 17 11 1 2 -10 -1 -25 -7 -35z m19 -38 c0 -8 -4
-15 -10 -15 -5 0 -7 7 -4 15 4 8 8 15 10 15 2 0 4 -7 4 -15z m114 -369 c-3
-15 -8 -25 -11 -23 -2 3 -1 17 3 31 3 15 8 25 11 23 2 -3 1 -17 -3 -31z m-257
-168 c-3 -8 -6 -5 -6 6 -1 11 2 17 5 13 3 -3 4 -12 1 -19z m174 -21 c-8 -8
-11 -7 -11 4 0 20 13 34 18 19 3 -7 -1 -17 -7 -23z m-104 -9 c-3 -8 -6 -5 -6
6 -1 11 2 17 5 13 3 -3 4 -12 1 -19z m97 -23 c-4 -8 -8 -15 -10 -15 -2 0 -4 7
-4 15 0 8 4 15 10 15 5 0 7 -7 4 -15z m96 -125 l-11 -25 6 25 c2 14 5 34 6 45
2 19 2 19 6 0 2 -12 -1 -32 -7 -45z m-254 -37 c-11 -11 -17 4 -9 23 7 18 8 18
11 1 2 -10 1 -21 -2 -24z m221 5 c-3 -8 -6 -5 -6 6 -1 11 2 17 5 13 3 -3 4
-12 1 -19z m-30 -10 c-3 -8 -6 -5 -6 6 -1 11 2 17 5 13 3 -3 4 -12 1 -19z m54
-25 c-12 -20 -14 -14 -5 12 4 9 9 14 11 11 3 -2 0 -13 -6 -23z m-261 -48 c-15
-40 -21 -27 -7 18 7 21 13 32 15 24 2 -7 -2 -26 -8 -42z m191 14 c-5 -13 -10
-19 -10 -12 -1 15 10 45 15 40 3 -2 0 -15 -5 -28z m-100 -19 c5 0 9 -9 9 -20
0 -11 -4 -20 -10 -20 -5 0 -10 5 -10 10 0 6 -7 10 -15 10 -8 0 -15 5 -15 11 0
5 5 7 10 4 6 -3 11 4 11 17 1 17 3 18 6 6 2 -10 9 -18 14 -18z m119 -10 c0
-16 -4 -30 -8 -30 -5 0 -7 14 -4 30 2 17 6 30 8 30 2 0 4 -13 4 -30z m-53 -12
c-3 -8 -6 -5 -6 6 -1 11 2 17 5 13 3 -3 4 -12 1 -19z m24 -19 c-9 -22 -10 -22
-10 -3 -1 11 2 24 6 27 12 12 14 0 4 -24z m-110 -30 c-9 -23 -10 -22 -10 11
-1 23 2 31 9 24 7 -7 7 -19 1 -35z m-61 -4 c0 -5 -5 -3 -10 5 -5 8 -10 20 -10
25 0 6 5 3 10 -5 5 -8 10 -19 10 -25z m-33 3 c-3 -8 -6 -5 -6 6 -1 11 2 17 5
13 3 -3 4 -12 1 -19z m170 0 c-3 -8 -6 -5 -6 6 -1 11 2 17 5 13 3 -3 4 -12 1
-19z m44 -24 c-9 -28 -9 -29 -10 -3 -1 14 2 29 6 32 11 12 13 2 4 -29z m-208
-25 c11 -8 -1 -69 -14 -69 -5 0 -3 11 3 25 9 19 9 28 0 37 -7 7 -12 19 -11 28
0 13 1 13 6 0 3 -8 10 -18 16 -21z m148 -2 c-8 -8 -11 -7 -11 4 0 20 13 34 18
19 3 -7 -1 -17 -7 -23z m-202 -14 c0 -25 -1 -26 -9 -8 -12 27 -12 35 0 35 6 0
10 -12 9 -27z m151 -12 c0 -55 -14 -59 -18 -5 -1 25 2 44 8 44 5 0 10 -18 10
-39z m180 -1 c0 -5 -4 -10 -10 -10 -5 0 -10 5 -10 10 0 6 5 10 10 10 6 0 10
-4 10 -10z m-298 -110 c5 -32 4 -35 -18 -35 -13 0 -24 3 -24 8 0 4 3 7 8 7 4
0 7 17 7 38 -1 71 15 61 27 -18z"/>
<path d="M5132 1840 c0 -14 2 -19 5 -12 2 6 2 18 0 25 -3 6 -5 1 -5 -13z"/>
<path d="M5367 1847 c-3 -9 -9 -40 -12 -69 l-5 -53 15 59 c15 57 16 99 2 63z"/>
<path d="M5074 1782 l-2 -57 10 49 c5 27 5 53 1 57 -4 4 -9 -18 -9 -49z"/>
<path d="M5287 1826 c-4 -10 -7 -25 -6 -34 0 -11 4 -9 10 7 5 13 8 29 6 35 -2
5 -6 2 -10 -8z"/>
<path d="M5310 1805 c0 -19 2 -35 4 -35 2 0 6 16 8 35 2 19 0 35 -4 35 -4 0
-8 -16 -8 -35z"/>
<path d="M4747 1807 c-4 -10 -7 -26 -7 -35 1 -15 2 -15 11 1 6 10 9 25 7 35
-3 16 -4 15 -11 -1z"/>
<path d="M5891 1804 c0 -11 3 -14 6 -6 3 7 2 16 -1 19 -3 4 -6 -2 -5 -13z"/>
<path d="M5105 1760 c-4 -23 -5 -43 -2 -46 2 -3 7 14 11 37 4 23 5 44 2 46 -2
2 -7 -14 -11 -37z"/>
<path d="M5400 1781 c0 -11 4 -22 9 -25 4 -3 6 6 3 19 -5 30 -12 33 -12 6z"/>
<path d="M5511 1774 c0 -11 3 -14 6 -6 3 7 2 16 -1 19 -3 4 -6 -2 -5 -13z"/>
<path d="M4961 1764 c0 -11 3 -14 6 -6 3 7 2 16 -1 19 -3 4 -6 -2 -5 -13z"/>
<path d="M4955 1730 c-3 -5 -2 -10 4 -10 7 0 7 -8 0 -27 -10 -26 -4 -81 8 -70
3 3 6 31 8 61 2 52 -5 70 -20 46z"/>
<path d="M4702 1700 c-7 -11 -12 -30 -11 -42 0 -21 2 -20 11 6 8 21 13 25 19
15 7 -12 9 -11 9 1 0 30 -15 40 -28 20z"/>
<path d="M5340 1686 c-12 -34 -13 -46 -1 -46 11 0 26 59 17 67 -3 3 -10 -6
-16 -21z"/>
<path d="M5010 1681 c0 -5 5 -13 10 -16 6 -3 10 -2 10 4 0 5 -4 13 -10 16 -5
3 -10 2 -10 -4z"/>
<path d="M5091 1683 c-1 -6 -4 -20 -7 -30 -5 -17 -5 -17 6 0 6 10 9 23 6 30
-3 9 -5 9 -5 0z"/>
<path d="M5501 1634 c0 -11 3 -14 6 -6 3 7 2 16 -1 19 -3 4 -6 -2 -5 -13z"/>
<path d="M4666 1596 c-4 -21 -5 -40 -2 -43 7 -8 18 42 14 64 -3 11 -7 3 -12
-21z"/>
<path d="M4517 1606 c-4 -10 -3 -15 3 -11 6 3 10 1 10 -6 0 -7 3 -10 6 -6 3 3
2 13 -4 22 -8 16 -9 16 -15 1z"/>
<path d="M4925 1580 c-9 -17 -11 -30 -5 -30 5 0 10 4 10 8 0 5 9 18 20 30 16
17 18 22 6 22 -9 0 -22 -13 -31 -30z"/>
<path d="M5341 1584 c0 -11 3 -14 6 -6 3 7 2 16 -1 19 -3 4 -6 -2 -5 -13z"/>
<path d="M4490 1561 c-7 -15 -7 -21 0 -21 12 0 25 28 17 36 -3 3 -10 -4 -17
-15z"/>
<path d="M5552 1550 c0 -19 2 -27 5 -17 2 9 2 25 0 35 -3 9 -5 1 -5 -18z"/>
<path d="M5000 1529 c-7 -11 -10 -23 -7 -25 2 -2 9 7 15 21 14 30 7 33 -8 4z"/>
<path d="M6443 1505 c0 -22 2 -30 4 -17 2 12 2 30 0 40 -3 9 -5 -1 -4 -23z"/>
<path d="M4925 1519 c-4 -6 -5 -12 -2 -15 2 -3 7 2 10 11 7 17 1 20 -8 4z"/>
<path d="M5306 1499 c-11 -56 -5 -76 10 -29 8 24 10 48 5 53 -4 4 -11 -6 -15
-24z"/>
<path d="M4890 1505 c0 -8 2 -15 4 -15 2 0 6 7 10 15 3 8 1 15 -4 15 -6 0 -10
-7 -10 -15z"/>
<path d="M4943 1505 c-3 -9 -3 -18 -1 -21 3 -3 8 4 11 16 6 23 -1 27 -10 5z"/>
<path d="M4873 1463 c-3 -10 -8 -22 -10 -28 -3 -5 3 -1 11 9 16 20 21 36 11
36 -3 0 -8 -8 -12 -17z"/>
<path d="M5126 1465 c-3 -9 -6 -22 -5 -28 0 -7 5 -1 10 12 5 13 8 26 5 28 -2
2 -6 -3 -10 -12z"/>
<path d="M4650 1460 c0 -5 5 -10 11 -10 5 0 7 5 4 10 -3 6 -8 10 -11 10 -2 0
-4 -4 -4 -10z"/>
<path d="M4945 1456 c-5 -6 -11 -27 -12 -46 -1 -35 -1 -34 13 9 15 48 15 56
-1 37z"/>
<path d="M5221 1434 c0 -11 3 -14 6 -6 3 7 2 16 -1 19 -3 4 -6 -2 -5 -13z"/>
<path d="M4631 1424 c0 -11 3 -14 6 -6 3 7 2 16 -1 19 -3 4 -6 -2 -5 -13z"/>
<path d="M4886 1413 c-6 -14 -5 -15 5 -6 7 7 10 15 7 18 -3 3 -9 -2 -12 -12z"/>
<path d="M4721 1394 c0 -11 3 -14 6 -6 3 7 2 16 -1 19 -3 4 -6 -2 -5 -13z"/>
<path d="M5091 1364 c0 -11 3 -14 6 -6 3 7 2 16 -1 19 -3 4 -6 -2 -5 -13z"/>
<path d="M5261 1364 c0 -11 3 -14 6 -6 3 7 2 16 -1 19 -3 4 -6 -2 -5 -13z"/>
<path d="M5318 1345 c-11 -58 -10 -81 3 -68 5 5 9 32 7 59 l-3 49 -7 -40z"/>
<path d="M4701 1324 c0 -11 3 -14 6 -6 3 7 2 16 -1 19 -3 4 -6 -2 -5 -13z"/>
<path d="M5067 1303 c-4 -21 -7 -56 -6 -78 0 -37 1 -38 10 -15 6 14 8 33 5 43
-2 11 0 30 6 43 8 17 8 28 1 35 -7 7 -12 -2 -16 -28z"/>
<path d="M4406 1293 c-6 -14 -5 -15 5 -6 7 7 10 15 7 18 -3 3 -9 -2 -12 -12z"/>
<path d="M4853 1269 c-2 -23 3 -25 10 -4 4 8 3 16 -1 19 -4 3 -9 -4 -9 -15z"/>
<path d="M4681 1239 c-7 -23 -10 -43 -7 -46 3 -3 7 0 9 8 2 8 9 29 15 47 5 17
7 32 3 32 -4 0 -13 -18 -20 -41z"/>
<path d="M4575 1233 c-14 -66 -15 -78 -15 -98 0 -11 -5 -30 -11 -42 -7 -12 -8
-30 -4 -40 6 -16 8 -15 17 7 5 14 11 50 13 80 3 30 7 72 11 93 3 20 4 37 1 37
-3 0 -8 -17 -12 -37z"/>
<path d="M4400 1250 c0 -5 5 -10 10 -10 6 0 10 5 10 10 0 6 -4 10 -10 10 -5 0
-10 -4 -10 -10z"/>
<path d="M6397 1245 c-3 -11 -8 -36 -11 -55 -5 -30 -3 -29 9 10 8 25 14 49 12
55 -2 5 -6 1 -10 -10z"/>
<path d="M4836 1214 c-4 -9 -4 -19 -1 -22 2 -3 7 3 11 12 4 9 4 19 1 22 -2 3
-7 -3 -11 -12z"/>
<path d="M4596 1181 c-4 -7 -5 -15 -2 -18 9 -9 19 4 14 18 -4 11 -6 11 -12 0z"/>
<path d="M5857 1159 c7 -27 23 -34 23 -11 0 11 -6 22 -14 25 -10 4 -12 0 -9
-14z"/>
<path d="M5051 1154 c0 -11 3 -14 6 -6 3 7 2 16 -1 19 -3 4 -6 -2 -5 -13z"/>
<path d="M4845 1151 c-3 -5 -1 -12 5 -16 5 -3 10 1 10 9 0 18 -6 21 -15 7z"/>
<path d="M4885 1150 c-3 -5 -1 -10 4 -10 6 0 11 5 11 10 0 6 -2 10 -4 10 -3 0
-8 -4 -11 -10z"/>
<path d="M5261 1143 c0 -12 -5 -25 -11 -28 -5 -3 -10 -14 -10 -23 1 -11 6 -8
16 11 8 16 13 36 11 45 -3 12 -5 11 -6 -5z"/>
<path d="M5941 1104 c0 -11 3 -14 6 -6 3 7 2 16 -1 19 -3 4 -6 -2 -5 -13z"/>
<path d="M5905 1080 c-4 -17 -5 -34 -2 -36 3 -3 8 9 12 26 4 17 5 34 2 36 -3
3 -8 -9 -12 -26z"/>
<path d="M4080 1071 c0 -5 -3 -16 -6 -25 -3 -9 -2 -16 4 -16 5 0 12 11 14 25
3 14 1 25 -3 25 -5 0 -9 -4 -9 -9z"/>
<path d="M5262 1060 c0 -14 2 -19 5 -12 2 6 2 18 0 25 -3 6 -5 1 -5 -13z"/>
<path d="M4167 1064 c-4 -4 -7 -14 -7 -23 0 -11 3 -12 11 -4 6 6 10 16 7 23
-2 6 -7 8 -11 4z"/>
<path d="M4883 1045 c-15 -17 -17 -32 -3 -37 5 -1 7 -14 3 -26 -4 -18 -8 -20
-14 -10 -7 10 -9 8 -10 -7 -1 -11 0 -26 1 -34 1 -8 -4 -18 -12 -22 -11 -8 -11
-11 1 -18 9 -6 10 -11 2 -15 -6 -4 -11 -19 -10 -34 l0 -27 11 25 c13 30 24 58
34 85 6 17 16 136 11 135 -1 -1 -8 -7 -14 -15z"/>
<path d="M5422 1040 c0 -14 2 -19 5 -12 2 6 2 18 0 25 -3 6 -5 1 -5 -13z"/>
<path d="M4045 1028 c-4 -10 -15 -18 -24 -18 -13 0 -13 -2 -2 -9 9 -6 10 -14
3 -27 -16 -31 -22 -83 -11 -90 15 -9 19 -2 35 67 15 65 15 112 -1 77z"/>
<path d="M4390 1025 c0 -8 2 -15 4 -15 2 0 6 7 10 15 3 8 1 15 -4 15 -6 0 -10
-7 -10 -15z"/>
<path d="M4361 1004 c0 -11 3 -14 6 -6 3 7 2 16 -1 19 -3 4 -6 -2 -5 -13z"/>
<path d="M6360 979 c0 -19 -4 -28 -11 -23 -7 4 -10 -21 -7 -85 1 -50 6 -91 11
-91 4 0 7 -11 7 -25 0 -15 -6 -25 -14 -25 -9 0 -12 -7 -9 -21 4 -16 8 -18 14
-7 6 8 8 -7 7 -39 -1 -37 -5 -53 -15 -53 -7 0 -13 -4 -13 -10 0 -5 6 -10 14
-10 12 0 13 -14 9 -74 -4 -47 -2 -80 6 -92 9 -15 11 35 10 216 -1 129 1 265 6
303 5 47 4 67 -4 67 -6 0 -11 -14 -11 -31z"/>
<path d="M4361 971 c-7 -5 -14 -26 -16 -47 -3 -37 -27 -147 -40 -189 -5 -16
-5 -17 4 -4 6 9 15 38 21 65 6 27 16 51 22 55 6 4 11 26 12 50 1 24 5 50 10
57 10 17 4 23 -13 13z"/>
<path d="M5404 930 c-6 -28 -7 -50 -3 -50 7 0 23 89 17 96 -2 2 -9 -19 -14
-46z"/>
<path d="M4126 957 c3 -10 9 -15 12 -12 3 3 0 11 -7 18 -10 9 -11 8 -5 -6z"/>
<path d="M3960 939 c0 -5 5 -7 10 -4 6 3 10 8 10 11 0 2 -4 4 -10 4 -5 0 -10
-5 -10 -11z"/>
<path d="M3910 929 c0 -5 5 -7 10 -4 6 3 10 8 10 11 0 2 -4 4 -10 4 -5 0 -10
-5 -10 -11z"/>
<path d="M3959 896 c-36 -33 -77 -113 -44 -86 8 7 25 28 37 48 13 21 24 30 26
23 2 -7 0 -16 -5 -20 -12 -8 -45 -92 -39 -99 3 -3 9 6 14 18 6 16 11 20 16 11
4 -6 -2 -28 -13 -47 -24 -40 -25 -44 -11 -44 6 0 10 5 10 12 0 6 8 20 17 30 9
10 17 26 18 36 0 9 3 22 7 27 3 6 8 23 12 38 5 21 4 27 -5 21 -9 -5 -11 3 -6
29 3 21 5 37 4 37 -1 0 -18 -16 -38 -34z"/>
<path d="M5925 910 c-3 -11 -3 -25 1 -31 4 -8 3 -9 -4 -5 -17 10 -15 -36 3
-70 l15 -29 1 35 c0 19 2 54 5 78 5 43 -9 59 -21 22z"/>
<path d="M4124 895 c-4 -14 -4 -28 -1 -31 3 -3 -1 -22 -10 -42 -8 -20 -10 -32
-5 -27 5 6 19 36 31 68 17 47 18 57 6 57 -8 0 -17 -11 -21 -25z"/>
<path d="M3880 900 c-8 -5 -12 -11 -9 -14 2 -3 11 -1 19 4 8 5 12 11 9 14 -2
3 -11 1 -19 -4z"/>
<path d="M6392 885 c0 -16 2 -22 5 -12 2 9 2 23 0 30 -3 6 -5 -1 -5 -18z"/>
<path d="M5372 870 c0 -19 2 -27 5 -17 2 9 2 25 0 35 -3 9 -5 1 -5 -18z"/>
<path d="M3852 850 c-7 -11 -12 -25 -12 -32 1 -7 8 0 16 15 18 33 14 46 -4 17z"/>
<path d="M3885 849 c-4 -6 -5 -12 -2 -15 2 -3 7 2 10 11 7 17 1 20 -8 4z"/>
<path d="M4858 804 c-11 -23 -13 -24 -19 -7 -7 17 -7 17 -14 -1 -5 -11 -3 -21
6 -26 11 -8 11 -16 0 -57 -7 -26 -15 -57 -16 -68 -2 -11 -4 -21 -5 -22 -2 -2
-3 -16 -4 -33 -2 -45 13 -20 18 30 6 62 23 103 38 94 10 -6 11 -4 1 7 -15 15
-18 43 -4 35 5 -3 11 12 13 34 4 47 2 49 -14 14z"/>
<path d="M3820 796 c0 -22 3 -27 11 -19 8 8 8 16 0 30 -9 16 -10 14 -11 -11z"/>
<path d="M4771 804 c0 -11 3 -14 6 -6 3 7 2 16 -1 19 -3 4 -6 -2 -5 -13z"/>
<path d="M3839 763 c-13 -16 -12 -17 4 -4 16 13 21 21 13 21 -2 0 -10 -8 -17
-17z"/>
<path d="M5927 741 c-4 -17 -3 -21 5 -13 5 5 8 16 6 23 -3 8 -7 3 -11 -10z"/>
<path d="M4118 740 c-2 -8 -2 -25 0 -38 4 -18 7 -20 13 -10 7 10 9 8 9 -7 0
-17 2 -17 10 -5 5 8 10 24 10 35 0 16 -2 17 -10 5 -7 -12 -11 -10 -18 10 -6
16 -10 20 -14 10z"/>
<path d="M3840 721 c0 -17 18 -21 24 -6 3 9 0 15 -9 15 -8 0 -15 -4 -15 -9z"/>
<path d="M3604 697 c-23 -25 -47 -77 -40 -84 9 -9 26 8 26 26 0 10 10 30 21
45 26 33 20 44 -7 13z"/>
<path d="M5952 687 c-1 -19 -2 -39 -3 -43 -4 -24 2 -96 8 -91 9 10 13 138 4
154 -5 10 -8 3 -9 -20z"/>
<path d="M3906 687 c3 -10 9 -15 12 -12 3 3 0 11 -7 18 -10 9 -11 8 -5 -6z"/>
<path d="M3656 681 c-4 -5 -3 -16 0 -25 3 -8 -1 -25 -10 -38 -17 -25 -20 -38
-8 -38 4 0 16 14 26 30 14 24 15 34 6 45 -6 8 -9 19 -5 25 3 5 4 10 1 10 -3 0
-7 -4 -10 -9z"/>
<path d="M3524 637 c-23 -23 -47 -52 -53 -65 -7 -12 -16 -20 -20 -18 -9 6 -83
-79 -130 -149 -19 -27 -53 -78 -78 -112 -24 -34 -68 -112 -97 -175 l-54 -113
244 -3 c233 -2 245 -1 264 18 24 24 25 30 5 30 -18 0 -20 16 -2 23 9 4 9 6 -1
6 -10 1 -9 8 3 31 9 17 14 30 13 31 -42 11 -49 7 -73 -39 -27 -50 -27 -45 12
57 35 93 66 211 67 251 1 19 6 34 12 33 6 -1 11 16 12 40 l1 42 -15 -27 c-8
-16 -19 -28 -24 -28 -6 0 -13 0 -17 0 -4 0 -6 18 -4 40 4 55 -11 50 -34 -11
-24 -60 -37 -73 -29 -27 l6 33 -22 -30 -22 -30 7 30 c9 34 13 62 14 88 1 10 6
15 11 12 10 -6 53 81 48 96 -2 5 -22 -10 -44 -34z m-5 -258 c-12 -54 -4 -61
15 -15 16 39 31 51 17 14 -27 -69 -51 -117 -61 -123 -9 -6 -9 -2 0 14 6 12 10
34 9 49 -3 34 14 102 26 102 1 0 -1 -19 -6 -41z m-93 -146 c-8 -15 -15 -25
-16 -21 0 12 23 58 27 54 3 -2 -2 -17 -11 -33z m43 -37 c-9 -8 -10 -7 -5 7 3
10 7 24 7 30 1 7 3 4 6 -7 3 -10 -1 -23 -8 -30z m102 -119 c-10 -9 -11 -8 -5
6 3 10 9 15 12 12 3 -3 0 -11 -7 -18z"/>
<path d="M4780 654 c0 -8 5 -12 10 -9 6 4 8 11 5 16 -9 14 -15 11 -15 -7z"/>
<path d="M3766 643 c-6 -14 -5 -15 5 -6 7 7 10 15 7 18 -3 3 -9 -2 -12 -12z"/>
<path d="M6422 630 c0 -14 2 -19 5 -12 2 6 2 18 0 25 -3 6 -5 1 -5 -13z"/>
<path d="M3613 616 c-12 -14 -20 -33 -18 -43 2 -10 4 -22 5 -28 0 -5 10 12 20
39 11 28 18 51 16 53 -1 1 -12 -8 -23 -21z"/>
<path d="M3885 599 c-4 -6 -5 -12 -2 -15 2 -3 7 2 10 11 7 17 1 20 -8 4z"/>
<path d="M4069 587 c-1 -4 -2 -10 -4 -14 -1 -5 -5 -26 -10 -48 -6 -32 -9 -36
-15 -20 -5 13 -7 6 -6 -22 0 -23 4 -39 8 -37 5 3 8 1 8 -5 0 -5 -6 -14 -14
-18 -8 -5 -16 -31 -19 -63 -7 -75 -18 -120 -28 -120 -5 0 -9 -5 -9 -11 0 -5 5
-7 10 -4 16 10 12 -11 -5 -25 -8 -7 -15 -18 -15 -25 0 -21 -37 -58 -43 -43 -3
7 -5 2 -5 -12 0 -14 -3 -33 -7 -42 -4 -12 -3 -18 5 -18 7 0 10 -7 6 -15 -14
-37 3 -45 90 -45 91 0 90 -1 85 66 -1 12 4 38 13 57 15 38 11 54 -11 36 -7 -6
-13 -8 -13 -3 0 11 -20 -18 -20 -29 0 -5 5 -5 10 -2 6 3 10 2 10 -4 0 -19 -19
-21 -25 -2 -7 23 13 71 31 71 11 0 24 21 24 41 0 19 -19 8 -23 -13 -5 -27 -11
71 -7 122 1 19 6 37 11 38 12 5 11 42 -1 42 -5 0 -10 -7 -10 -16 0 -11 -6 -13
-19 -9 -14 4 -21 0 -24 -12 -2 -10 -2 -4 1 12 3 17 6 46 8 65 1 19 8 55 14 79
6 24 8 46 5 49 -3 3 -6 2 -6 -1z m-6 -255 c-3 -12 -9 -22 -14 -22 -5 0 -3 11
3 25 13 30 20 28 11 -3z m4 -54 c-3 -8 -6 -5 -6 6 -1 11 2 17 5 13 3 -3 4 -12
1 -19z m-53 -128 l-7 -42 -14 32 c-14 34 -9 55 7 30 8 -12 10 -10 10 9 0 13 2
22 5 19 3 -3 3 -24 -1 -48z"/>
<path d="M4671 574 c0 -11 3 -14 6 -6 3 7 2 16 -1 19 -3 4 -6 -2 -5 -13z"/>
<path d="M6429 568 c-6 -23 -5 -69 2 -79 6 -9 9 3 9 34 0 26 -2 47 -5 47 -3 0
-5 -1 -6 -2z"/>
<path d="M3545 540 c-3 -5 -1 -10 4 -10 6 0 11 5 11 10 0 6 -2 10 -4 10 -3 0
-8 -4 -11 -10z"/>
<path d="M3722 515 c0 -16 2 -22 5 -12 2 9 2 23 0 30 -3 6 -5 -1 -5 -18z"/>
<path d="M4101 524 c0 -11 3 -14 6 -6 3 7 2 16 -1 19 -3 4 -6 -2 -5 -13z"/>
<path d="M4787 533 c-3 -5 -9 -30 -12 -54 -5 -37 -4 -40 5 -19 6 13 15 27 21
31 6 3 6 15 1 29 -5 13 -12 19 -15 13z"/>
<path d="M4831 524 c0 -11 3 -14 6 -6 3 7 2 16 -1 19 -3 4 -6 -2 -5 -13z"/>
<path d="M5216 525 c-9 -26 -7 -32 5 -12 6 10 9 21 6 23 -2 3 -7 -2 -11 -11z"/>
<path d="M3610 505 c1 -26 2 -28 11 -12 8 14 8 22 0 30 -8 8 -11 3 -11 -18z"/>
<path d="M3799 504 c-10 -12 -10 -20 -1 -35 16 -24 -1 -61 -23 -53 -10 4 -15
0 -15 -12 0 -15 2 -16 9 -5 6 9 11 10 15 2 4 -6 -2 -27 -14 -46 -17 -28 -19
-39 -10 -50 7 -9 8 -20 2 -32 -5 -10 -12 -35 -16 -56 -4 -20 -11 -37 -16 -37
-6 0 -10 -11 -10 -24 0 -13 -9 -35 -21 -50 -11 -14 -18 -26 -14 -26 3 0 0 -6
-7 -14 -7 -7 -18 -12 -24 -9 -7 2 -19 -9 -27 -26 l-15 -31 124 0 c100 0 124 3
124 14 0 8 5 16 11 18 6 2 13 31 15 63 3 47 2 55 -6 36 -6 -13 -13 -21 -16
-19 -3 3 2 23 10 43 22 52 21 75 -5 75 -12 0 -17 4 -13 11 3 6 15 9 25 6 12
-3 19 0 19 8 0 8 -8 11 -20 8 -14 -4 -20 0 -20 11 0 10 -4 14 -10 11 -5 -3
-10 -26 -10 -49 0 -24 -7 -57 -16 -72 l-16 -29 6 27 c3 14 9 34 12 45 6 16 5
16 -10 -2 l-18 -20 8 20 c13 37 15 70 6 94 -5 15 -5 36 2 56 16 45 14 121 -2
118 -17 -4 -15 14 3 21 16 6 21 26 6 26 -5 0 -14 -7 -22 -16z m68 -316 c-3 -8
-6 -5 -6 6 -1 11 2 17 5 13 3 -3 4 -12 1 -19z m-70 -40 c-3 -7 -5 -2 -5 12 0
14 2 19 5 13 2 -7 2 -19 0 -25z m50 -70 c-3 -8 -6 -5 -6 6 -1 11 2 17 5 13 3
-3 4 -12 1 -19z m-187 -48 c0 -5 -4 -10 -10 -10 -5 0 -10 5 -10 10 0 6 5 10
10 10 6 0 10 -4 10 -10z"/>
<path d="M4084 482 c-7 -5 -7 -14 2 -30 14 -28 24 -17 15 15 -3 13 -10 19 -17
15z"/>
<path d="M3787 453 c-4 -3 -7 -11 -7 -17 0 -6 5 -5 12 2 6 6 9 14 7 17 -3 3
-9 2 -12 -2z"/>
<path d="M5145 440 c-4 -12 -5 -24 -2 -27 3 -2 8 5 12 17 4 12 5 24 2 27 -3 2
-8 -5 -12 -17z"/>
<path d="M3845 440 c-3 -5 -1 -10 4 -10 6 0 11 5 11 10 0 6 -2 10 -4 10 -3 0
-8 -4 -11 -10z"/>
<path d="M5180 430 c-6 -11 -9 -26 -7 -33 3 -7 10 1 16 17 14 35 7 47 -9 16z"/>
<path d="M3843 395 c-3 -9 -3 -18 -1 -21 3 -3 8 4 11 16 6 23 -1 27 -10 5z"/>
<path d="M6380 399 c0 -5 -4 -7 -10 -4 -6 4 -10 -5 -10 -20 0 -17 4 -24 12
-19 6 4 9 3 6 -2 -3 -5 -2 -27 2 -49 7 -34 8 -29 7 33 -1 39 -2 72 -4 72 -2 0
-3 -5 -3 -11z"/>
<path d="M5135 380 c3 -5 8 -10 11 -10 2 0 4 5 4 10 0 6 -5 10 -11 10 -5 0 -7
-4 -4 -10z"/>
<path d="M6492 345 c0 -16 2 -22 5 -12 2 9 2 23 0 30 -3 6 -5 -1 -5 -18z"/>
<path d="M5845 309 c-4 -6 -5 -12 -2 -15 2 -3 7 2 10 11 7 17 1 20 -8 4z"/>
<path d="M5953 285 c0 -22 2 -30 4 -17 2 12 2 30 0 40 -3 9 -5 -1 -4 -23z"/>
<path d="M5181 247 c-15 -39 -14 -45 5 -19 8 12 13 28 11 35 -3 6 -10 -1 -16
-16z"/>
<path d="M4707 253 c-4 -3 -7 -22 -7 -41 0 -44 10 -36 15 12 3 38 3 40 -8 29z"/>
<path d="M3586 205 c-9 -26 -7 -32 5 -12 6 10 9 21 6 23 -2 3 -7 -2 -11 -11z"/>
<path d="M4681 204 c0 -11 3 -14 6 -6 3 7 2 16 -1 19 -3 4 -6 -2 -5 -13z"/>
<path d="M3669 163 c-13 -16 -12 -17 4 -4 16 13 21 21 13 21 -2 0 -10 -8 -17
-17z"/>
<path d="M4136 124 c-3 -9 -6 -25 -6 -37 0 -16 -3 -18 -9 -9 -5 8 -8 -5 -7
-32 1 -40 4 -46 23 -46 20 0 21 2 11 31 -6 17 -8 48 -5 70 5 41 3 49 -7 23z"/>
<path d="M3627 111 c-2 -10 -1 -25 4 -32 6 -10 9 -4 9 19 0 36 -5 42 -13 13z"/>
<path d="M6405 120 c3 -5 8 -10 11 -10 2 0 4 5 4 10 0 6 -5 10 -11 10 -5 0 -7
-4 -4 -10z"/>
<path d="M5845 109 c-4 -6 -5 -12 -2 -15 2 -3 7 2 10 11 7 17 1 20 -8 4z"/>
<path d="M6302 95 c0 -16 2 -22 5 -12 2 9 2 23 0 30 -3 6 -5 -1 -5 -18z"/>
<path d="M4172 35 c0 -17 2 -22 5 -12 2 9 2 23 0 30 -3 6 -5 -1 -5 -18z"/>
<path d="M4196 35 c-8 -23 -8 -35 3 -35 13 0 23 32 13 42 -6 6 -12 3 -16 -7z"/>
<path d="M5097 17 c-3 -8 1 -14 8 -14 7 0 11 6 8 14 -6 16 -10 16 -16 0z"/>
<path d="M6320 10 c0 -5 5 -10 10 -10 6 0 10 5 10 10 0 6 -4 10 -10 10 -5 0
-10 -4 -10 -10z"/>
</g>
</svg>
